<svg id="authenticated_seal_20x20" data-name="authenticated seal 20x20" 
  xmlns="http://www.w3.org/2000/svg" width="30" height="30" viewBox="0 0 24 24">
  <rect id="Rectangle_3" data-name="Rectangle 3" width="24" height="24" fill="none"/>
  <g id="shield" transform="translate(-19.724 3)">
    <path id="Path_98" data-name="Path 98" d="M31.89,18h0A12.57,12.57,0,0,0,40.057,6.227V3.049A3.049,3.049,0,0,1,37.008,0H26.773a3.049,3.049,0,0,1-3.049,3.049V6.227A12.57,12.57,0,0,0,31.89,18Z" fill="#09d"/>
    <path id="Path_99" data-name="Path 99" d="M256,18h0a12.571,12.571,0,0,0,7.6-11.773V3.049A2.949,2.949,0,0,1,260.763,0H256V18Z" transform="translate(-223.544)" fill="#0080dd"/>
    <path id="Path_100" data-name="Path 100" d="M149.16,168.162l-2.52-2.52,1.388-1.388,1.131,1.131,3.249-3.249,1.388,1.388Z" transform="translate(-118.328 -156.215)" fill="#f1f1f2"/>
    <path id="Path_101" data-name="Path 101" d="M256,167.1v-2.776l2.19-2.19,1.388,1.388Z" transform="translate(-223.935 -156.27)" fill="#e6e6e6"/>
  </g>
</svg>
