<svg xmlns="http://www.w3.org/2000/svg" width="40" height="40" viewBox="0 0 40 40">
  <defs>
    <style>
      .cls-1 {
        fill: none;
      }

      .cls-2 {
        fill: #0092dd;
      }

      .cls-3 {
        fill: #fff;
      }
    </style>
  </defs>
  <g id="Group_9498" data-name="Group 9498" transform="translate(-40 -120)">
    <rect id="Rectangle_8452" data-name="Rectangle 8452" class="cls-1" width="40" height="40" transform="translate(40 120)"/>
    <g id="Group_8638" data-name="Group 8638" transform="translate(-16.418 -1.807)">
      <g id="Group_8636" data-name="Group 8636" transform="translate(59.42 125.807)">
        <path id="Path_2403" data-name="Path 2403" class="cls-2" d="M254.211,263.75h-4.018a2,2,0,0,0-1.994,1.994v3.081a2,2,0,0,0,1.994,1.994h4.018a2,2,0,0,0,1.994-1.994v-3.081A2,2,0,0,0,254.211,263.75Zm.544,5.075a.545.545,0,0,1-.544.544h-4.018a.545.545,0,0,1-.544-.544v-3.081a.545.545,0,0,1,.544-.544h4.018a.545.545,0,0,1,.544.544Z" transform="translate(-233.205 -249.691)"/>
        <path id="Path_2404" data-name="Path 2404" class="cls-2" d="M29.567,39.508a.673.673,0,0,0-.1-.356l-4.4-7.733a.729.729,0,0,0-.628-.369H5.117a.716.716,0,0,0-.628.369L.1,39.152a.733.733,0,0,0-.1.356,4.241,4.241,0,0,0,2.537,3.879V56.141a.727.727,0,0,0,.725.725H26.3a.727.727,0,0,0,.725-.725V43.477a.319.319,0,0,0-.006-.079A4.253,4.253,0,0,0,29.567,39.508Zm-24.027-7H24.021l3.438,6.048H2.109ZM21.043,40a2.786,2.786,0,0,1-5.486,0Zm-7.026,0a2.79,2.79,0,0,1-5.492,0ZM1.5,40H6.99A2.79,2.79,0,0,1,1.5,40ZM12.18,55.416H8.011V47.592a1.033,1.033,0,0,1,1.033-1.033h2.109a1.033,1.033,0,0,1,1.033,1.033v7.824Zm13.394,0H13.63V47.592a2.487,2.487,0,0,0-2.483-2.483H9.038a2.487,2.487,0,0,0-2.483,2.483v7.83H3.987V43.743c.085.006.169.006.254.006a4.236,4.236,0,0,0,3.516-1.873,4.237,4.237,0,0,0,7.032,0,4.226,4.226,0,0,0,7.02,0,4.236,4.236,0,0,0,3.516,1.873c.085,0,.163-.006.248-.006V55.416ZM25.326,42.3A2.785,2.785,0,0,1,22.583,40h5.492A2.8,2.8,0,0,1,25.326,42.3Z" transform="translate(0 -31.05)"/>
      </g>
      <g id="Group_8637" data-name="Group 8637" transform="translate(2 -81)">
        <circle id="Ellipse_802" data-name="Ellipse 802" class="cls-3" cx="6.381" cy="6.381" r="6.381" transform="translate(78.933 224.943)"/>
        <path id="Path_2448" data-name="Path 2448" class="cls-2" d="M346.372,375.658a6.836,6.836,0,1,0,6.836,6.836A6.836,6.836,0,0,0,346.372,375.658Zm2.991,8.008h-1.818v1.818a1.173,1.173,0,1,1-2.346,0v-1.818h-1.818a1.173,1.173,0,1,1,0-2.346H345.2V379.5a1.173,1.173,0,1,1,2.346,0v1.818h1.818a1.173,1.173,0,0,1,0,2.346Z" transform="translate(-261.262 -151.277)"/>
      </g>
    </g>
  </g>
</svg>
