<svg xmlns="http://www.w3.org/2000/svg" width="99" height="96" viewBox="0 0 99 96">
  <defs>
    <style>
      .cls-1 {
        fill: rgba(221,153,0,0.36);
      }

      .cls-2 {
        fill: #333;
      }
    </style>
  </defs>
  <g id="Group_10123" data-name="Group 10123" transform="translate(-157.5 -64)">
    <ellipse id="Ellipse_811" data-name="Ellipse 811" class="cls-1" cx="37.5" cy="42.5" rx="37.5" ry="42.5" transform="translate(181.5 64)"/>
    <g id="Group_9431" data-name="Group 9431" transform="translate(5.5 -160)">
      <g id="Page-1" transform="translate(152 224.008)">
        <g id="_062---Coffee-Shop" data-name="062---Coffee-Shop" transform="translate(0 0.013)">
          <path id="Shape" class="cls-2" d="M3.2,83.487A4.8,4.8,0,0,0,0,87.992v4.8a3.2,3.2,0,0,0,3.2,3.2H92.8a3.2,3.2,0,0,0,3.2-3.2v-4.8a4.8,4.8,0,0,0-3.2-4.506V25.3a4.56,4.56,0,0,0,1.773-1.109A4.71,4.71,0,0,0,96,20.792a4.8,4.8,0,0,0-4.8-4.8H73.6v-6.4a4.8,4.8,0,0,0-4.8-4.8H47.954c-.237-.274-.48-.544-.746-.8C42.72-.52,36.176-1.313,32.624,2.221a7.283,7.283,0,0,0-1.64,2.571H27.2a4.8,4.8,0,0,0-4.8,4.8v6.4H4.8a4.675,4.675,0,0,0-3.373,1.4A4.71,4.71,0,0,0,0,20.792,4.8,4.8,0,0,0,3.2,25.3Zm0,4.506a1.6,1.6,0,0,1,1.6-1.6H30.4v6.4H3.2Zm30.4,4.8v-6.4H62.4v6.4Zm24-9.6H38.4v-27.2a3.2,3.2,0,0,1,3.2-3.2H54.4a3.2,3.2,0,0,1,3.2,3.2Zm8,9.6v-6.4H91.2a1.6,1.6,0,0,1,1.6,1.6v4.8Zm24-9.6H60.8v-27.2a6.4,6.4,0,0,0-6.4-6.4H41.6a6.4,6.4,0,0,0-6.4,6.4v27.2H6.4v-57.6H22.211l-4.443,8.885c-.01.019-.011.04-.021.059s-.022.07-.037.106a1.6,1.6,0,0,0-.1.48c0,.022-.013.04-.013.062v4.8a6.373,6.373,0,0,0,11.2,4.189,6.315,6.315,0,0,0,9.6,0,6.315,6.315,0,0,0,9.6,0,6.315,6.315,0,0,0,9.6,0,6.315,6.315,0,0,0,9.6,0,6.373,6.373,0,0,0,11.2-4.181v-4.8c0-.022-.011-.04-.013-.062a1.6,1.6,0,0,0-.1-.48c-.014-.035-.022-.072-.037-.106s-.011-.04-.021-.059l-4.443-8.893H89.6Zm-18.589-56,3.2,6.4H21.789l3.2-6.4ZM65.6,39.992a3.2,3.2,0,1,1-6.4,0v-3.2h6.4Zm-9.6,0a3.2,3.2,0,0,1-6.4,0v-3.2H56Zm-9.6,0a3.2,3.2,0,1,1-6.4,0v-3.2h6.4Zm-9.6,0a3.2,3.2,0,0,1-6.4,0v-3.2h6.4Zm-9.6,0a3.2,3.2,0,0,1-6.4,0v-3.2h6.4Zm41.6-3.2h6.4v3.2a3.2,3.2,0,0,1-6.4,0Zm22.4-17.6a1.6,1.6,0,0,1,1.6,1.6,1.565,1.565,0,0,1-.49,1.141,1.544,1.544,0,0,1-1.11.459H73.6v-3.2ZM33.72,6.736a8.064,8.064,0,0,0,2.165.549,3.466,3.466,0,0,1,3.331,3.336,6.424,6.424,0,0,0,1.92,4.131,6.41,6.41,0,0,0,4.123,1.92c.286.04.536.085.774.139-2.426,1.6-6.416.7-9.376-2.269A9.014,9.014,0,0,1,33.72,6.736Zm11.226-.48a9.014,9.014,0,0,1,2.934,7.8,8.064,8.064,0,0,0-2.165-.549,3.466,3.466,0,0,1-3.331-3.342,6.424,6.424,0,0,0-1.92-4.131,6.41,6.41,0,0,0-4.123-1.92c-.3-.042-.558-.09-.8-.147a5.006,5.006,0,0,1,2.806-.8,9.738,9.738,0,0,1,6.6,3.085ZM25.6,9.592a1.6,1.6,0,0,1,1.6-1.6h3.226a12.878,12.878,0,0,0,3.968,8.8,12.858,12.858,0,0,0,8.885,3.974,7.928,7.928,0,0,0,5.7-2.21c2.574-2.584,2.838-6.758,1.056-10.571H68.8a1.6,1.6,0,0,1,1.6,1.6v14.4H25.6ZM3.69,19.651a1.544,1.544,0,0,1,1.11-.459H22.4v3.2H4.8a1.6,1.6,0,0,1-1.6-1.6,1.565,1.565,0,0,1,.49-1.141Z" transform="translate(0 -0.013)"/>
          <path id="Shape-2" data-name="Shape" class="cls-2" d="M22,31H12.4A6.4,6.4,0,0,0,6,37.4V51.8A3.2,3.2,0,0,0,9.2,55h16a3.2,3.2,0,0,0,3.2-3.2V37.4A6.4,6.4,0,0,0,22,31Zm-9.6,3.2H22a3.2,3.2,0,0,1,3.2,3.2v8H9.2v-8A3.2,3.2,0,0,1,12.4,34.2ZM9.2,51.8V48.6h16v3.2Z" transform="translate(3.6 18.579)"/>
          <path id="Shape-3" data-name="Shape" class="cls-2" d="M56,31H46.4A6.4,6.4,0,0,0,40,37.4V51.8A3.2,3.2,0,0,0,43.2,55h16a3.2,3.2,0,0,0,3.2-3.2V37.4A6.4,6.4,0,0,0,56,31Zm-9.6,3.2H56a3.2,3.2,0,0,1,3.2,3.2v8h-16v-8A3.2,3.2,0,0,1,46.4,34.2ZM43.2,51.8V48.6h16v3.2Z" transform="translate(24 18.579)"/>
          <path id="Shape-4" data-name="Shape" class="cls-2" d="M33.6,40A1.6,1.6,0,0,0,32,41.6v4.8a1.6,1.6,0,0,0,3.2,0V41.6A1.6,1.6,0,0,0,33.6,40Z" transform="translate(19.2 23.979)"/>
          <path id="Shape-5" data-name="Shape" class="cls-2" d="M35.6,10.2h9.6a1.6,1.6,0,1,0,0-3.2H35.6a1.6,1.6,0,1,0,0,3.2Z" transform="translate(20.4 4.179)"/>
          <path id="Shape-6" data-name="Shape" class="cls-2" d="M40.8,11H37.6a1.6,1.6,0,0,0,0,3.2h3.2a1.6,1.6,0,0,0,0-3.2Z" transform="translate(21.6 6.579)"/>
        </g>
      </g>
    </g>
  </g>
</svg>
