<svg id="dashboard-activity-done-icon" xmlns="http://www.w3.org/2000/svg" width="24" height="24" viewBox="0 0 24 24">
  <rect id="Rectangle_9424" data-name="Rectangle 9424" width="24" height="24" fill="none"/>
  <path id="tick" d="M.7,9.317a.975.975,0,0,0,.106,1.375l4.814,4.127a.969.969,0,0,0,.633.235c.029,0,.058,0,.087,0a.972.972,0,0,0,.669-.352L15.245,4.675A.977.977,0,0,0,15.11,3.3L13.6,2.063A.977.977,0,0,0,12.23,2.2L5.893,9.911,3.346,7.729a.978.978,0,0,0-1.375.106Z" transform="translate(4.533 3.158)" fill="#54b948"/>
</svg>
