<svg data-name="lifestyles 24x24" xmlns="http://www.w3.org/2000/svg" width="24" height="24"><rect id="backgroundrect" width="100%" height="100%" x="0" y="0" fill="none" stroke="none"/>


<g class="currentLayer" style=""><title>Layer 1</title><rect id="Rectangle_4" data-name="Rectangle 4" width="24" height="24" fill="none" class="" y="0" x="-0.5405413508415222"/>
    <path id="Path_2582" data-name="Path 2582" d="M16.61199951171875,3.1290283203125 l0.453000009059906,0.24899999797344208 c2.138000011444092,1.2410000562667847 3.200000047683716,1.8619999885559082 3.822999954223633,2.9489998817443848 s0.5889999866485596,2.2920000553131104 0.5889999866485596,4.710999965667725 v1.187000036239624 c0,2.4189999103546143 0,3.624000072479248 -0.6069999933242798,4.710999965667725 A7.2129998207092285,7.2129998207092285 0 0 1 18,19.3270263671875 h0 l-1.9880000352859497,-1.159999966621399 l0.05000000074505806,-0.027000000700354576 c1.812000036239624,-1.059999942779541 2.7179999351501465,-1.5850000381469727 3.0850000381469727,-2.2100000381469727 s0.3529999852180481,-1.6579999923706055 0.3490000069141388,-3.7139999866485596 V11.0369873046875 c0,-2.055999994277954 0,-3.0940001010894775 -0.3490000069141388,-3.7139999866485596 s-1.2910000085830688,-1.1510000228881836 -3.0999999046325684,-2.2100000381469727 l-0.453000009059906,-0.2540000081062317 h0 l-0.5,-0.28999999165534973 c-1.7669999599456787,-1.0369999408721924 -2.671999931335449,-1.5579999685287476 -3.3519999980926514,-1.5579999685287476 s-1.5850000381469727,0.515999972820282 -3.3610000610351562,1.5540000200271606 h0 l-0.48899999260902405,0.2939999997615814 h0 l-0.453000009059906,0.2540000081062317 C5.624000549316406,6.1729736328125 4.717998504638672,6.70001220703125 4.354999542236328,7.34100341796875 S4,9 4,11.0560302734375 v1.187000036239624 c0,2.055999994277954 0,3.0940001010894775 0.3529999852180481,3.7139999866485596 s1.2680000066757202,1.1319999694824219 3.0799999237060547,2.191999912261963 l0.453000009059906,0.2540000081062317 l0.906000018119812,0.5249999761581421 l2.9579999446868896,1.7259999513626099 l1.975000023841858,1.1820000410079956 l-1.6349999904632568,0.9559999704360962 h0 L11.737998962402344,23 l-0.5,-0.2939999997615814 L6.868999481201172,20.15997314453125 l-0.453000009059906,-0.2540000081062317 c-2.119999885559082,-1.2410000562667847 -3.184000015258789,-1.8839999437332153 -3.799999952316284,-2.9709999561309814 S2,14.64300537109375 2,12.2239990234375 V11.0369873046875 C2,8.6190185546875 2,7.41400146484375 2.6110000610351562,6.3270263671875 S4.299999237060547,4.6240234375 6.433998107910156,3.37799072265625 l0.453000009059906,-0.24899999797344208 h0 l0.5,-0.28999999165534973 h0 C9.459999084472656,1.61102294921875 10.506000518798828,1 11.737998962402344,1 S14,1.61102294921875 16.11400032043457,2.833984375 l0.5,0.28999999165534973 z" fill="#0092dd" class="" stroke-opacity="1" stroke="none" fill-opacity="1"/>
    <path id="Path_2583" data-name="Path 2583" d="M15.009000778198242,6.03704833984375 l0.2669999897480011,0.15399999916553497 c1.4129999876022339,0.8199999928474426 2.124000072479248,1.2319999933242798 2.5769999027252197,2 s0.453000009059906,1.5670000314712524 0.4300000071525574,3.1710000038146973 v0.7519999742507935 c0,1.593999981880188 0,2.4000000953674316 -0.4300000071525574,3.1710000038146973 s-1.1460000276565552,1.1820000410079956 -2.555000066757202,2 l-0.2759999930858612,0.1589999943971634 l-0.14499999582767487,0.0860000029206276 L12.871002197265625,16.36004638671875 l1.1319999694824219,-0.6610000133514404 l0.2759999930858612,-0.1589999943971634 c1.0920000076293945,-0.6389999985694885 1.6399999856948853,-0.9559999704360962 1.812000036239624,-1.2640000581741333 a5.744999885559082,5.744999885559082 0 0 0 0.1720000058412552,-2.1649999618530273 v-0.7519999742507935 a5.877999782562256,5.877999782562256 0 0 0 -0.1720000058412552,-2.1700000762939453 c-0.1720000058412552,-0.31299999356269836 -0.7250000238418579,-0.625 -1.812000036239624,-1.2640000581741333 l-0.2720000147819519,-0.1589999943971634 h0 l-0.31700000166893005,-0.1860000044107437 h0 a5.538000106811523,5.538000106811523 0 0 0 -1.9390000104904175,-0.9330000281333923 a5.579999923706055,5.579999923706055 0 0 0 -1.9429999589920044,0.9330000281333923 h0 l-0.31700000166893005,0.1860000044107437 h0 l-0.2759999930858612,0.16300000250339508 c-1.100000023841858,0.6340000033378601 -1.6399999856948853,0.9509999752044678 -1.812000036239624,1.2589999437332153 a5.822999954223633,5.822999954223633 0 0 0 -0.1770000010728836,2.1700000762939453 v0.7519999742507935 a5.704999923706055,5.704999923706055 0 0 0 0.1770000010728836,2.1649999618530273 c0.1770000010728836,0.30799999833106995 0.7200000286102295,0.625 1.812000036239624,1.2640000581741333 l0.2759999930858612,0.1589999943971634 l2.265000104904175,1.3179999589920044 h0 l5.109000205993652,2.9800000190734863 L14.871002197265625,21.15704345703125 l-3.115999937057495,-1.812000036239624 l-0.5,-0.2939999997615814 L8.49100112915039,17.43804931640625 l-0.2759999930858612,-0.1589999943971634 c-1.430999994277954,-0.8240000009536743 -2.138000011444092,-1.2319999933242798 -2.5910000801086426,-2.006999969482422 S5.171001434326172,13.7060546875 5.171001434326172,12.10205078125 v-0.7429999709129333 c0,-1.600000023841858 0,-2.4000000953674316 0.453000009059906,-3.1710000038146973 s1.1460000276565552,-1.1779999732971191 2.555000066757202,-2 l0.2720000147819519,-0.15399999916553497 h0 l0.31700000166893005,-0.1860000044107437 h0 C10.15300178527832,5.041015625 10.860000610351562,4.6240234375 11.739002227783203,4.6240234375 s1.5850000381469727,0.4169999957084656 2.944000005722046,1.2280000448226929 h0 l0.31700000166893005,0.1860000044107437 z" fill="#0092dd" class="" stroke-opacity="1" stroke="none" fill-opacity="1"/>
  </g></svg>