<svg viewBox="0 0 24 24">
    <rect id="backgroundrect" width="100%" height="100%" x="0" y="0" fill="none" stroke="none" />

    <g>
        <title>Layer 1</title>
        <rect id="Rectangle_4" data-name="Rectangle 4" width="24" height="24" fill="none" />

        <g fill="#0092dd" fillOpacity="1" opacity="1">
            <path id="Path_2582" data-name="Path 2582" d="M16.612000000000002,3.129000000000019 l0.453,0.24900000000000005 c2.138,1.241 3.2,1.862 3.823,2.949 s0.5890000000000002,2.292 0.5890000000000002,4.711 v1.187 c0,2.419 0,3.624 -0.6070000000000002,4.711 A7.213,7.213 0 0 1 18,19.326999999999998 h0 l-1.988,-1.1600000000000001 l0.05000000000000002,-0.027000000000000014 c1.812,-1.06 2.718,-1.585 3.085,-2.21 s0.3530000000000001,-1.6580000000000004 0.3490000000000002,-3.714 V11.037000000000035 c0,-2.056 0,-3.094 -0.3490000000000002,-3.714 s-1.291,-1.151 -3.1,-2.21 l-0.453,-0.254 h0 l-0.5,-0.2900000000000001 c-1.7670000000000003,-1.037 -2.672,-1.558 -3.352,-1.558 s-1.585,0.516 -3.361,1.554 h0 l-0.4890000000000001,0.2940000000000001 h0 l-0.453,0.254 C5.624000000000002,6.173000000000002 4.7180000000000035,6.7000000000000455 4.354999999999997,7.341000000000008 S4,9 4,11.05600000000004 v1.187 c0,2.056 0,3.094 0.3530000000000001,3.714 s1.268,1.1320000000000001 3.08,2.192 l0.453,0.254 l0.906,0.525 l2.958,1.726 l1.975,1.182 l-1.6350000000000002,0.9560000000000002 h0 L11.738,23 l-0.5,-0.2940000000000001 L6.869,20.159999999999968 l-0.453,-0.254 c-2.12,-1.241 -3.184,-1.8840000000000003 -3.8,-2.971 S2,14.643000000000029 2,12.224000000000046 V11.037000000000035 C2,8.619000000000028 2,7.413999999999987 2.610999999999997,6.326999999999998 S4.299999999999997,4.624000000000024 6.4339999999999975,3.3780000000000427 l0.453,-0.24900000000000005 h0 l0.5,-0.2900000000000001 h0 C9.46,1.61099999999999 10.506,1 11.738,1 S14,1.61099999999999 16.114,2.8339999999999463 l0.5,0.2900000000000001 z" fill="#0092dd" fillOpacity="1" opacity="1" />
            <path id="Path_2583" data-name="Path 2583" d="M15.009001434326173,6.037023437500011 l0.267,0.15400000000000005 c1.413,0.8200000000000002 2.124,1.232 2.577,2 s0.453,1.5670000000000002 0.4300000000000001,3.171 v0.7520000000000002 c0,1.594 0,2.4 -0.4300000000000001,3.171 s-1.146,1.182 -2.555,2 l-0.276,0.15900000000000006 l-0.14500000000000005,0.08600000000000003 L12.871001434326171,16.36002343749999 l1.1320000000000001,-0.6610000000000003 l0.276,-0.15900000000000006 c1.092,-0.6390000000000002 1.6400000000000001,-0.9560000000000002 1.812,-1.264 a5.745,5.745 0 0 0 0.17200000000000001,-2.165 v-0.7520000000000002 a5.878,5.878 0 0 0 -0.17200000000000001,-2.17 c-0.17200000000000001,-0.3130000000000001 -0.7250000000000002,-0.6250000000000002 -1.812,-1.264 l-0.272,-0.15900000000000006 h0 l-0.3170000000000001,-0.18600000000000005 h0 a5.538,5.538 0 0 0 -1.939,-0.933 a5.58,5.58 0 0 0 -1.943,0.933 h0 l-0.3170000000000001,0.18600000000000005 h0 l-0.276,0.16300000000000006 c-1.1,0.6340000000000002 -1.6400000000000001,0.9510000000000002 -1.812,1.259 a5.823,5.823 0 0 0 -0.17700000000000005,2.17 v0.7520000000000002 a5.705,5.705 0 0 0 0.17700000000000005,2.165 c0.17700000000000005,0.3080000000000001 0.7200000000000002,0.6250000000000002 1.812,1.264 l0.276,0.15900000000000006 l2.265,1.318 h0 l5.109,2.98 L14.871001434326171,21.157023437500015 l-3.116,-1.812 l-0.5,-0.2940000000000001 L8.491001434326172,17.438023437499965 l-0.276,-0.15900000000000006 c-1.431,-0.8240000000000002 -2.138,-1.232 -2.591,-2.007 S5.171001434326172,13.706023437499994 5.171001434326172,12.102023437499952 v-0.7430000000000002 c0,-1.6 0,-2.4 0.453,-3.171 s1.146,-1.178 2.555,-2 l0.272,-0.15400000000000005 h0 l0.3170000000000001,-0.18600000000000005 h0 C10.153001434326171,5.04102343750003 10.860001434326172,4.6240234375 11.73900143432617,4.6240234375 s1.585,0.4170000000000001 2.944,1.228 h0 l0.3170000000000001,0.18600000000000005 z" fill="#0092dd" fillOpacity="1" opacity="1" />
        </g>
    </g>
</svg>