<svg class="facebook" viewBox="0.002 0 54 54">
    <path fill="rgba(71,89,147,1)" id="facebook" d="M 46.72521209716797 0 L 7.278663158416748 0 C 3.259953022003174 0 0.002000000094994903 3.257821083068848 0.002000000094994903 7.276663303375244 L 0.002000000094994903 46.72348022460938 C 0.002000000094994903 50.74232482910156 3.259821176528931 54.00014495849609 7.278662204742432 54.00014495849609 L 26.7335147857666 54.00014495849609 L 26.76667213439941 34.70341491699219 L 21.75338935852051 34.70341491699219 C 21.10187721252441 34.70341491699219 20.57308769226074 34.17660140991211 20.57057762145996 33.52508926391602 L 20.54653549194336 27.30495452880859 C 20.54402732849121 26.64987564086914 21.07440185546875 26.11751937866211 21.7294807434082 26.11751937866211 L 26.7336483001709 26.11751937866211 L 26.7336483001709 20.10728645324707 C 26.7336483001709 13.13246822357178 30.99343872070312 9.334627151489258 37.21541976928711 9.334627151489258 L 42.32103729248047 9.334627151489258 C 42.97426986694336 9.334627151489258 43.50398254394531 9.864212036132812 43.50398254394531 10.5175724029541 L 43.50398254394531 15.76242351531982 C 43.50398254394531 16.41551971435547 42.97466278076172 16.94497108459473 42.32169723510742 16.94536781311035 L 39.18844604492188 16.94682121276855 C 35.80473327636719 16.94682121276855 35.14952087402344 18.55472755432129 35.14952087402344 20.91440963745117 L 35.14952087402344 26.11765098571777 L 42.5847053527832 26.11765098571777 C 43.29315185546875 26.11765098571777 43.84281158447266 26.73627090454102 43.75932693481445 27.43982887268066 L 43.0220832824707 33.65996551513672 C 42.95154571533203 34.25520324707031 42.44679260253906 34.70367813110352 41.84746170043945 34.70367813110352 L 35.18268203735352 34.70367813110352 L 35.14952087402344 54.00041198730469 L 46.72547149658203 54.00041198730469 C 50.74417877197266 54.00041198730469 54.00199890136719 50.74259185791016 54.00199890136719 46.723876953125 L 54.00199890136719 7.276663303375244 C 54.00187683105469 3.257821083068848 50.74405288696289 0 46.72521209716797 0 Z">
    </path>
</svg>