<svg id="filter_country_32x32" data-name="filter country 32x32" xmlns="http://www.w3.org/2000/svg" width="32" height="32" viewBox="0 0 32 32">
  <rect id="Rectangle_5" data-name="Rectangle 5" width="32" height="32" fill="none"/>
  <g id="world-location" transform="translate(4.59 5)">
    <g id="Group_8912" data-name="Group 8912" transform="translate(0.41)">
      <path id="Path_2614" data-name="Path 2614" d="M5.986,11.119S9.92,7.2,9.92,3.935a3.934,3.934,0,1,0-7.868,0C2.052,7.389,5.986,11.119,5.986,11.119ZM3.936,3.935a2.05,2.05,0,1,1,2.05,2.049A2.05,2.05,0,0,1,3.936,3.935Z" transform="translate(-0.909)" fill="#0092dd"/>
      <path id="Path_2615" data-name="Path 2615" d="M24.232,6.511l-.32.1L22.2,6.765l-.482.77-.349-.111L20.014,6.2l-.2-.637-.262-.68L18.7,4.114l-1.007-.2-.024.462.987.963.483.569-.544.284-.443-.131-.662-.276.023-.535-.87-.358-.289,1.256-.876.2.087.7,1.14.22.2-1.12.942.14.438.256h.7l.48.963L20.741,8.8l-.093.5-1.029-.132-1.777.9-1.279,1.535-.166.679h-.46l-.856-.394-.831.394.207.878.362-.419.636-.019-.045.788.527.153.526.592.859-.242.982.155,1.139.307.57.066.963,1.1,1.862,1.1-1.2,2.3-1.271.591-.482,1.315-1.84,1.229-.2.709A10.711,10.711,0,0,0,24.232,6.511Z" transform="translate(-4.615 -1.19)" fill="#0092dd"/>
      <path id="Path_2616" data-name="Path 2616" d="M12.358,19.794l-.78-1.447.716-1.494-.716-.216-.8-.807-1.782-.4L8.4,14.192v.736H8.139L7.007,13.395c-.552.661-.971,1.082-1.023,1.134l-.485.483L5,14.54A17.044,17.044,0,0,1,1.468,9.577,10.695,10.695,0,0,0,11.126,24.91a11,11,0,0,0,1.344-.094l-.112-1.3s.492-1.928.492-1.993S12.358,19.794,12.358,19.794Z" transform="translate(-0.41 -2.91)" fill="#0092dd"/>
      <path id="Path_2617" data-name="Path 2617" d="M13.986,2.871l.789.13,1.914-.18.526-.581.743-.5,1.053.159.384-.058a10.547,10.547,0,0,0-6.783-.789,4.627,4.627,0,0,1,1.129,2.2Zm1.3-.992,1.1-.6.7.405-1.018.775-.97.1-.438-.283Z" transform="translate(-4.118 -0.248)" fill="#0092dd"/>
    </g>
  </g>
</svg>
