<svg id="lifestyles_24x24" data-name="lifestyles 24x24" xmlns="http://www.w3.org/2000/svg" width="24" height="24" viewBox="0 0 24 24">
  <rect id="Rectangle_4" data-name="Rectangle 4" width="24" height="24" fill="none"/>
  <g id="Group_9485" data-name="Group 9485" transform="translate(-39 -718)">
    <path id="Path_2582" data-name="Path 2582" d="M14.612,2.129l.453.249c2.138,1.241,3.2,1.862,3.823,2.949s.589,2.292.589,4.711v1.187c0,2.419,0,3.624-.607,4.711A7.213,7.213,0,0,1,16,18.327h0l-1.988-1.16.05-.027c1.812-1.06,2.718-1.585,3.085-2.21s.353-1.658.349-3.714V10.037c0-2.056,0-3.094-.349-3.714s-1.291-1.151-3.1-2.21l-.453-.254h0l-.5-.29c-1.767-1.037-2.672-1.558-3.352-1.558s-1.585.516-3.361,1.554h0l-.489.294h0l-.453.254C3.624,5.173,2.718,5.7,2.355,6.341S2,8,2,10.056v1.187c0,2.056,0,3.094.353,3.714s1.268,1.132,3.08,2.192l.453.254.906.525,2.958,1.726,1.975,1.182-1.635.956h0L9.738,22l-.5-.294L4.869,19.16l-.453-.254c-2.12-1.241-3.184-1.884-3.8-2.971S0,13.643,0,11.224V10.037C0,7.619,0,6.414.611,5.327S2.3,3.624,4.434,2.378l.453-.249h0l.5-.29h0C7.46.611,8.506,0,9.738,0S12,.611,14.114,1.834l.5.29Z" transform="translate(41 719)" fill="#707070"/>
    <path id="Path_2583" data-name="Path 2583" d="M16.838,9.413l.267.154c1.413.82,2.124,1.232,2.577,2s.453,1.567.43,3.171v.752c0,1.594,0,2.4-.43,3.171s-1.146,1.182-2.555,2l-.276.159-.145.086L14.7,19.736l1.132-.661.276-.159c1.092-.639,1.64-.956,1.812-1.264a5.745,5.745,0,0,0,.172-2.165v-.752a5.878,5.878,0,0,0-.172-2.17c-.172-.313-.725-.625-1.812-1.264l-.272-.159h0l-.317-.186h0a5.538,5.538,0,0,0-1.939-.933,5.58,5.58,0,0,0-1.943.933h0l-.317.186h0l-.276.163c-1.1.634-1.64.951-1.812,1.259a5.823,5.823,0,0,0-.177,2.17v.752a5.705,5.705,0,0,0,.177,2.165c.177.308.72.625,1.812,1.264l.276.159,2.265,1.318h0l5.109,2.98L16.7,24.533l-3.116-1.812-.5-.294L10.32,20.814l-.276-.159c-1.431-.824-2.138-1.232-2.591-2.007S7,17.082,7,15.478v-.743c0-1.6,0-2.4.453-3.171s1.146-1.178,2.555-2l.272-.154h0l.317-.186h0C11.982,8.417,12.689,8,13.568,8s1.585.417,2.944,1.228h0l.317.186Z" transform="translate(37.171 714.624)" fill="#707070"/>
  </g>
</svg>
