<svg id="filter_areas_32x32" data-name="filter areas 32x32" xmlns="http://www.w3.org/2000/svg" width="32" height="32" viewBox="0 0 32 32">
  <rect id="Rectangle_5" data-name="Rectangle 5" width="32" height="32" fill="none"/>
  <g id="skyline" transform="translate(-17.011 5)">
    <g id="Group_8905" data-name="Group 8905" transform="translate(23.011)">
      <g id="Group_8904" data-name="Group 8904" transform="translate(0)">
        <path id="Path_2584" data-name="Path 2584" d="M42.663,21.258h-.618V1.854a.371.371,0,0,0-.371-.371H34.753a.371.371,0,0,0-.371.371V3.461H33.64V1.854a.371.371,0,0,0-.371-.371H31.663V.371a.371.371,0,0,0-.742,0V1.483H29.314a.371.371,0,0,0-.371.371V3.461H27.831a.371.371,0,0,0-.371.371v3.09h-3.09A.371.371,0,0,0,24,7.292V21.258h-.618a.371.371,0,0,0,0,.742H42.663a.371.371,0,1,0,0-.742ZM29.685,2.225H32.9V3.461H29.685ZM28.449,21.258H28.2V20.64a.371.371,0,1,0-.742,0v.618h-.247V20.022h1.236Zm2.472-9.517v9.517h-1.73V19.652a.371.371,0,0,0-.371-.371H26.842a.371.371,0,0,0-.371.371v1.607h-1.73V7.663h6.18v4.079Zm.371-4.82H28.2V4.2h6.18v7.169H31.663V10.135h1.112a.371.371,0,1,0,0-.742H31.663V8.157h1.112a.371.371,0,1,0,0-.742H31.663V7.292A.371.371,0,0,0,31.292,6.921Zm6.551,14.337h-6.18V12.112h6.18Zm3.461,0H38.584V11.247a.371.371,0,0,0-.742,0v.124H37.1v-.124a.371.371,0,0,0-.742,0v.124H35.123V2.225H41.3V21.258Z" transform="translate(-23.011)" fill="#0092dd" stroke="#0092dd" stroke-width="0.3"/>
        <path id="Path_2585" data-name="Path 2585" d="M253.485,306.615a.361.361,0,0,0,.361-.361V299.51a.361.361,0,0,0-.722,0v6.743A.361.361,0,0,0,253.485,306.615Z" transform="translate(-243.227 -286.059)" fill="#0092dd" stroke="#0092dd" stroke-width="0.3"/>
        <path id="Path_2586" data-name="Path 2586" d="M288,306.615a.361.361,0,0,0,.361-.361V299.51a.361.361,0,1,0-.722,0v6.743A.361.361,0,0,0,288,306.615Z" transform="translate(-276.259 -286.059)" fill="#0092dd" stroke="#0092dd" stroke-width="0.3"/>
        <path id="Path_2587" data-name="Path 2587" d="M322.518,306.615a.361.361,0,0,0,.361-.361V299.51a.361.361,0,1,0-.722,0v6.743A.361.361,0,0,0,322.518,306.615Z" transform="translate(-309.29 -286.059)" fill="#0092dd" stroke="#0092dd" stroke-width="0.3"/>
        <path id="Path_2588" data-name="Path 2588" d="M334.024,81.744a.361.361,0,0,0,.361-.361V80.9a.361.361,0,0,0-.722,0v.482A.361.361,0,0,0,334.024,81.744Z" transform="translate(-320.301 -77.074)" fill="#0092dd" stroke="#0092dd" stroke-width="0.3"/>
        <path id="Path_2589" data-name="Path 2589" d="M368.541,81.744a.361.361,0,0,0,.361-.361V80.9a.361.361,0,1,0-.722,0v.482A.361.361,0,0,0,368.541,81.744Z" transform="translate(-353.334 -77.074)" fill="#0092dd" stroke="#0092dd" stroke-width="0.3"/>
        <path id="Path_2590" data-name="Path 2590" d="M403.058,81.744a.361.361,0,0,0,.361-.361V80.9a.361.361,0,0,0-.722,0v.482A.361.361,0,0,0,403.058,81.744Z" transform="translate(-386.287 -77.074)" fill="#0092dd" stroke="#0092dd" stroke-width="0.3"/>
        <path id="Path_2591" data-name="Path 2591" d="M334.024,139.271a.361.361,0,0,0,.361-.361v-.482a.361.361,0,0,0-.722,0v.482A.361.361,0,0,0,334.024,139.271Z" transform="translate(-320.301 -132.125)" fill="#0092dd" stroke="#0092dd" stroke-width="0.3"/>
        <path id="Path_2592" data-name="Path 2592" d="M368.541,139.271a.361.361,0,0,0,.361-.361v-.482a.361.361,0,1,0-.722,0v.482A.361.361,0,0,0,368.541,139.271Z" transform="translate(-353.334 -132.125)" fill="#0092dd" stroke="#0092dd" stroke-width="0.3"/>
        <path id="Path_2593" data-name="Path 2593" d="M403.058,139.271a.361.361,0,0,0,.361-.361v-.482a.361.361,0,1,0-.722,0v.482A.361.361,0,0,0,403.058,139.271Z" transform="translate(-386.287 -132.125)" fill="#0092dd" stroke="#0092dd" stroke-width="0.3"/>
        <path id="Path_2594" data-name="Path 2594" d="M334.024,196.8a.361.361,0,0,0,.361-.361v-.482a.361.361,0,0,0-.722,0v.482A.361.361,0,0,0,334.024,196.8Z" transform="translate(-320.301 -187.179)" fill="#0092dd" stroke="#0092dd" stroke-width="0.3"/>
        <path id="Path_2595" data-name="Path 2595" d="M368.541,196.8a.361.361,0,0,0,.361-.361v-.482a.361.361,0,1,0-.722,0v.482A.361.361,0,0,0,368.541,196.8Z" transform="translate(-353.334 -187.179)" fill="#0092dd" stroke="#0092dd" stroke-width="0.3"/>
        <path id="Path_2596" data-name="Path 2596" d="M403.058,196.8a.361.361,0,0,0,.361-.361v-.482a.361.361,0,1,0-.722,0v.482A.361.361,0,0,0,403.058,196.8Z" transform="translate(-386.287 -187.179)" fill="#0092dd" stroke="#0092dd" stroke-width="0.3"/>
        <path id="Path_2597" data-name="Path 2597" d="M92.406,219.811a.361.361,0,0,0,.361-.361v-.482a.361.361,0,1,0-.722,0v.482A.361.361,0,0,0,92.406,219.811Z" transform="translate(-89.155 -209.199)" fill="#0092dd" stroke="#0092dd" stroke-width="0.3"/>
        <path id="Path_2598" data-name="Path 2598" d="M126.923,219.811a.361.361,0,0,0,.361-.361v-.482a.361.361,0,1,0-.722,0v.482A.361.361,0,0,0,126.923,219.811Z" transform="translate(-122.108 -209.199)" fill="#0092dd" stroke="#0092dd" stroke-width="0.3"/>
        <path id="Path_2599" data-name="Path 2599" d="M161.44,219.811a.361.361,0,0,0,.361-.361v-.482a.361.361,0,1,0-.722,0v.482A.361.361,0,0,0,161.44,219.811Z" transform="translate(-155.141 -209.199)" fill="#0092dd" stroke="#0092dd" stroke-width="0.3"/>
        <path id="Path_2600" data-name="Path 2600" d="M92.406,277.339a.361.361,0,0,0,.361-.361V276.5a.361.361,0,0,0-.722,0v.482A.361.361,0,0,0,92.406,277.339Z" transform="translate(-89.155 -264.252)" fill="#0092dd" stroke="#0092dd" stroke-width="0.3"/>
        <path id="Path_2601" data-name="Path 2601" d="M126.923,277.339a.361.361,0,0,0,.361-.361V276.5a.361.361,0,0,0-.722,0v.482A.361.361,0,0,0,126.923,277.339Z" transform="translate(-122.108 -264.252)" fill="#0092dd" stroke="#0092dd" stroke-width="0.3"/>
        <path id="Path_2602" data-name="Path 2602" d="M161.44,277.339a.361.361,0,0,0,.361-.361V276.5a.361.361,0,0,0-.722,0v.482A.361.361,0,0,0,161.44,277.339Z" transform="translate(-155.141 -264.252)" fill="#0092dd" stroke="#0092dd" stroke-width="0.3"/>
        <path id="Path_2603" data-name="Path 2603" d="M92.406,334.867a.361.361,0,0,0,.361-.361v-.482a.361.361,0,1,0-.722,0v.482A.361.361,0,0,0,92.406,334.867Z" transform="translate(-89.155 -319.304)" fill="#0092dd" stroke="#0092dd" stroke-width="0.3"/>
        <path id="Path_2604" data-name="Path 2604" d="M126.923,334.867a.361.361,0,0,0,.361-.361v-.482a.361.361,0,1,0-.722,0v.482A.361.361,0,0,0,126.923,334.867Z" transform="translate(-122.108 -319.304)" fill="#0092dd" stroke="#0092dd" stroke-width="0.3"/>
        <path id="Path_2605" data-name="Path 2605" d="M161.44,334.867a.361.361,0,0,0,.361-.361v-.482a.361.361,0,1,0-.722,0v.482A.361.361,0,0,0,161.44,334.867Z" transform="translate(-155.141 -319.304)" fill="#0092dd" stroke="#0092dd" stroke-width="0.3"/>
        <path id="Path_2606" data-name="Path 2606" d="M92.406,392.4a.361.361,0,0,0,.361-.361v-.482a.361.361,0,1,0-.722,0v.482A.361.361,0,0,0,92.406,392.4Z" transform="translate(-89.155 -374.356)" fill="#0092dd" stroke="#0092dd" stroke-width="0.3"/>
        <path id="Path_2607" data-name="Path 2607" d="M126.923,392.4a.361.361,0,0,0,.361-.361v-.482a.361.361,0,1,0-.722,0v.482A.361.361,0,0,0,126.923,392.4Z" transform="translate(-122.108 -374.356)" fill="#0092dd" stroke="#0092dd" stroke-width="0.3"/>
        <path id="Path_2608" data-name="Path 2608" d="M161.44,392.4a.361.361,0,0,0,.361-.361v-.482a.361.361,0,1,0-.722,0v.482A.361.361,0,0,0,161.44,392.4Z" transform="translate(-155.141 -374.356)" fill="#0092dd" stroke="#0092dd" stroke-width="0.3"/>
        <path id="Path_2609" data-name="Path 2609" d="M403.058,254.328a.361.361,0,0,0,.361-.361v-.482a.361.361,0,1,0-.722,0v.482A.361.361,0,0,0,403.058,254.328Z" transform="translate(-386.287 -242.231)" fill="#0092dd" stroke="#0092dd" stroke-width="0.3"/>
        <path id="Path_2610" data-name="Path 2610" d="M403.058,311.856a.361.361,0,0,0,.361-.361v-.482a.361.361,0,0,0-.722,0v.482A.361.361,0,0,0,403.058,311.856Z" transform="translate(-386.287 -297.283)" fill="#0092dd" stroke="#0092dd" stroke-width="0.3"/>
        <path id="Path_2611" data-name="Path 2611" d="M403.058,369.384a.361.361,0,0,0,.361-.361v-.482a.361.361,0,1,0-.722,0v.482A.361.361,0,0,0,403.058,369.384Z" transform="translate(-386.287 -352.336)" fill="#0092dd" stroke="#0092dd" stroke-width="0.3"/>
        <path id="Path_2612" data-name="Path 2612" d="M403.058,426.912a.361.361,0,0,0,.361-.361v-.482a.361.361,0,1,0-.722,0v.482A.361.361,0,0,0,403.058,426.912Z" transform="translate(-386.287 -407.32)" fill="#0092dd" stroke="#0092dd" stroke-width="0.3"/>
        <path id="Path_2613" data-name="Path 2613" d="M176.2,126.923a.361.361,0,0,0-.361-.361h-2.89a.361.361,0,1,0,0,.722h2.89A.361.361,0,0,0,176.2,126.923Z" transform="translate(-166.119 -121.119)" fill="#0092dd" stroke="#0092dd" stroke-width="0.3"/>
      </g>
    </g>
  </g>
</svg>
