<svg xmlns="http://www.w3.org/2000/svg" width="32" height="32" viewBox="0 0 32 32">
  <g id="filter_nearest_32x32" data-name="filter nearest 32x32" transform="translate(-873 -675)">
    <rect id="Rectangle_5" data-name="Rectangle 5" width="32" height="32" transform="translate(873 675)" fill="none"/>
    <g id="maps-and-flags_2_" data-name="maps-and-flags (2)" transform="translate(880 679)">
      <g id="Group_8893" data-name="Group 8893">
        <path id="Path_2565" data-name="Path 2565" d="M79.265,0a8.7,8.7,0,0,0-8.692,8.692c0,5.948,7.778,14.68,8.11,15.049a.783.783,0,0,0,1.165,0c.331-.369,8.11-9.1,8.11-15.049A8.7,8.7,0,0,0,79.265,0Zm0,13.065a4.373,4.373,0,1,1,4.373-4.373A4.378,4.378,0,0,1,79.265,13.065Z" transform="translate(-70.573)" fill="#0092dd"/>
      </g>
    </g>
  </g>
</svg>
