<svg id="flag_kuwait_32x32" data-name="flag kuwait 32x32" xmlns="http://www.w3.org/2000/svg" width="32" height="32" viewBox="0 0 32 32">
  <g id="kuwait_1_" data-name="kuwait (1)" transform="translate(1 1)">
    <path id="Path_2543" data-name="Path 2543" d="M29.067,156.435a15.055,15.055,0,0,0,0-10.435L15,144.7.933,146a15.055,15.055,0,0,0,0,10.435L15,157.739Z" transform="translate(0 -136.218)" fill="#f0f0f0"/>
    <path id="Path_2544" data-name="Path 2544" d="M29.989,354.826a15.005,15.005,0,0,0,14.067-9.783H15.922A15.005,15.005,0,0,0,29.989,354.826Z" transform="translate(-14.99 -324.826)" fill="#d80027"/>
    <path id="Path_2545" data-name="Path 2545" d="M29.989,0A15.005,15.005,0,0,0,15.922,9.783H44.056A15.005,15.005,0,0,0,29.989,0Z" transform="translate(-14.99)" fill="#6da544"/>
    <path id="Path_2546" data-name="Path 2546" d="M4.393,74.98a15,15,0,0,0,0,21.213L9.782,90.8V80.369Z" transform="translate(0 -70.587)"/>
  </g>
  <rect id="Rectangle_5" data-name="Rectangle 5" width="32" height="32" fill="none"/>
</svg>
