<svg id="inner_filter_wellness_24x24" data-name="inner filter wellness 24x24" xmlns="http://www.w3.org/2000/svg" width="24" height="24" viewBox="0 0 24 24">
  <rect id="Rectangle_4" data-name="Rectangle 4" width="24" height="24" fill="none"/>
  <g id="warrior" transform="translate(-15.562 58)">
    <path id="Path_1590" data-name="Path 1590" d="M34.14,19.964a.608.608,0,0,0,.528-.616.745.745,0,0,0-.528-.71V15.022a1.927,1.927,0,0,0-1.362-1.849l-3.113-.966V8.91a1.523,1.523,0,0,0-.249-.837A2.251,2.251,0,0,0,28.884,3.7V2.031A2.034,2.034,0,0,0,26.852,0a.406.406,0,0,0-.406.406V3.644h-.006a1.321,1.321,0,0,0-1.344,1.3,1.322,1.322,0,0,0,1.3,1.345h.024a5.437,5.437,0,0,1-.58,1.923,1.53,1.53,0,0,0-.171.7V12.4l-.978,1.761-5.237,3.292a1.786,1.786,0,0,0-.889,1.44,1.189,1.189,0,0,0,.413.835,1.007,1.007,0,0,0,.954.234ZM30.124,5.945a1.443,1.443,0,0,1-1.24,1.427V4.518a1.443,1.443,0,0,1,1.24,1.427ZM27.258.881a1.222,1.222,0,0,1,.814,1.15V7.843a.406.406,0,0,0,.283.387.711.711,0,0,1,.5.681V12.1H26.478V8.911a.707.707,0,0,1,.079-.328,6.207,6.207,0,0,0,.7-2.845ZM26.05,5.318a.509.509,0,0,1,.366-.863h.03v1.02h-.039a.506.506,0,0,1-.357-.156Zm-.142,11.254a.406.406,0,0,0-.543-.185l-5.1,2.51a.407.407,0,0,0-.075.048.709.709,0,0,1-.448.093.354.354,0,0,1-.288-.254.729.729,0,0,1,.432-.643l5.325-3.348a.406.406,0,0,0,.139-.146l.963-1.735H28.5l-1.172,1.759a5.01,5.01,0,0,1-1.959,1.717l-.84.413a.406.406,0,1,0,.358.728l.84-.413a5.823,5.823,0,0,0,2.276-2l.319-.478,3.318,1.222v3.484a.553.553,0,0,0,.546.616H19.93l.73-.359,5.063-2.49a.406.406,0,0,0,.185-.543Zm6.876,2.68c-.342,0-.331-.285-.331-.477V15.582a.406.406,0,0,0-.265-.381l-3.4-1.253.441-.663.2-.3,3.109.965a1.119,1.119,0,0,1,.791,1.074V18.49a.82.82,0,0,0,.1.485.844.844,0,0,0,.4.278Z" transform="translate(1 -56)" fill="#0093dd"/>
  </g>
</svg>
