<svg id="inner_filter_sports_24x24" data-name="inner filter sports 24x24" xmlns="http://www.w3.org/2000/svg" width="24" height="24" viewBox="0 0 24 24">
  <rect id="Rectangle_4" data-name="Rectangle 4" width="24" height="24" fill="none"/>
  <g id="running" transform="translate(1 4)">
    <path id="Path_1591" data-name="Path 1591" d="M19.821,9.733,16.534,9.5,14.362,5.88,13.276,4.068v-.5a.986.986,0,0,0-1.342-.92L8.811,3.85l.236-.792a1.472,1.472,0,0,0-.726-1.7L5.87.046a.379.379,0,0,0-.5.139L1.77,5.941,1.694,5.9a.379.379,0,0,0-.518.14l-.007.012L.045,8.167a.38.38,0,0,0,.152.51l13.687,7.586a.38.38,0,0,0,.184.047h5.657A2.278,2.278,0,0,0,22,14.035V12.073a2.354,2.354,0,0,0-2.179-2.34Zm-4.08-.081-.433.145L11.915,5.384l.872-.655ZM5.829.885,7.961,2.029a.715.715,0,0,1,.356.819L8,3.9,5.827,2.6l-.754-.453ZM3.583,4.505l.194-.3,1.248.928a2.173,2.173,0,0,1,.846,2.048l-.047,1.1L2.434,6.321ZM19.725,15.552h-5.56L.889,8.194l.767-1.441,12.569,7.232a.378.378,0,0,0,.19.051h6.828a1.517,1.517,0,0,1-1.517,1.517Zm1.517-2.276H14.515l-2.6-1.5.875-.892a.379.379,0,0,0-.542-.531l-1.012,1.032-1.441-.831L11.239,9.4a.379.379,0,0,0-.474-.593L9.087,10.15,7.852,9.44,9.726,7.878a.38.38,0,1,0-.486-.583L7.151,9.036,6.565,8.7l.061-1.456A2.913,2.913,0,0,0,5.478,4.519L4.186,3.558l.488-.767L8.032,4.806a.371.371,0,0,0,.147.048c.009,0,.017,0,.026,0l.022,0a.377.377,0,0,0,.137-.025l3.842-1.482a.228.228,0,0,1,.31.214v.417L11.151,5.008a.379.379,0,0,0-.075.531l0,0,3.793,4.931a.377.377,0,0,0,.42.129l1.066-.355,3.409.244a1.593,1.593,0,0,1,1.475,1.582Zm0,0" transform="translate(-0.001 0)" fill="#0093dd"/>
    <path id="Path_1592" data-name="Path 1592" d="M2.561,256H.427a.427.427,0,0,0,0,.854H2.561a.427.427,0,0,0,0-.854Zm0,0" transform="translate(0 -245.067)" fill="#0093dd"/>
    <path id="Path_1593" data-name="Path 1593" d="M0,309.392a.427.427,0,0,0,.427.427H5.976a.427.427,0,0,0,0-.854H.427a.427.427,0,0,0-.427.427Zm0,0" transform="translate(0 -296.069)" fill="#0093dd"/>
    <path id="Path_1594" data-name="Path 1594" d="M10.671,361.934H.427a.427.427,0,1,0,0,.854H10.671a.427.427,0,0,0,0-.854Zm0,0" transform="translate(0 -346.477)" fill="#0093dd"/>
  </g>
</svg>
