<svg id="inner_filter_fitness_24x24" data-name="inner filter fitness 24x24" xmlns="http://www.w3.org/2000/svg" width="24" height="24" viewBox="0 0 24 24">
  <rect id="Rectangle_4" data-name="Rectangle 4" width="24" height="24" fill="none"/>
  <g id="muscles" transform="translate(2 -18.338)">
    <g id="Group_6724" data-name="Group 6724" transform="translate(0 21.338)">
      <path id="Path_1598" data-name="Path 1598" d="M16.916,27.885l-.143,0a5.3,5.3,0,0,0-4.7,2.861,4.441,4.441,0,0,0-4.719.64,16.94,16.94,0,0,0-.2-2.024A12.086,12.086,0,0,1,7,27.883H9.071a1.22,1.22,0,0,0,.868-.36l1.636-1.636a1.224,1.224,0,0,0,.024-1.7,1.222,1.222,0,0,0-.339-1.7l-.993-.662a2.9,2.9,0,0,0-1.616-.489,4.475,4.475,0,0,0-3.185,1.32A17.449,17.449,0,0,0,1.8,27.992,15.219,15.219,0,0,0,.227,33.2a5.687,5.687,0,0,1-.159,1.5,1.815,1.815,0,0,0,.865,2.067,19.565,19.565,0,0,0,9.691,2.574h.592a19.5,19.5,0,0,0,6.177-1l.286-.1a2.859,2.859,0,0,0,1.958-2.716V30.751A2.851,2.851,0,0,0,16.916,27.885Zm1.9,7.639a2.043,2.043,0,0,1-1.4,1.94l-.286.1a18.688,18.688,0,0,1-5.918.96h-.592a18.744,18.744,0,0,1-9.285-2.466A1,1,0,0,1,.855,34.92,6.462,6.462,0,0,0,1.045,33.2a14.83,14.83,0,0,1,1.5-4.881,16.623,16.623,0,0,1,3.5-5.085,3.662,3.662,0,0,1,2.607-1.08,2.089,2.089,0,0,1,1.162.352l.993.662a.409.409,0,0,1,.063.63L9.563,25.106a.459.459,0,0,1-.649-.649l.376-.376a.409.409,0,1,0-.578-.578l-.376.376a1.277,1.277,0,1,0,1.806,1.806l.895-.895a.4.4,0,0,1-.04.519L9.36,26.945a.412.412,0,0,1-.289.12H7.161a.617.617,0,0,1,.084-.12.409.409,0,0,0-.578-.578c-.669.669-.507,1.8-.318,3.11a14.768,14.768,0,0,1,.2,2.089,1.977,1.977,0,0,1-1.33,2.058.409.409,0,0,0,.2.793,2.667,2.667,0,0,0,1.7-1.557c.006-.007.015-.01.02-.018a3.682,3.682,0,0,1,5.686-.619.409.409,0,1,0,.576-.581,4.529,4.529,0,0,0-.611-.5A4.486,4.486,0,0,1,16.773,28.7l.121,0a2.028,2.028,0,0,1,1.924,2.047v4.773Z" transform="translate(0 -21.338)" fill="#0093dd"/>
    </g>
  </g>
</svg>
