<svg id="inner_filter_martial_arts_24x24" data-name="inner filter martial arts 24x24" xmlns="http://www.w3.org/2000/svg" width="24" height="24" viewBox="0 0 24 24">
  <rect id="Rectangle_4" data-name="Rectangle 4" width="24" height="24" fill="none"/>
  <path id="Path_2619" data-name="Path 2619" d="M19.928,52.423a1.235,1.235,0,0,0-.636-.707h0l-1.6-.764.05-.126a.39.39,0,0,0-.192-.495l-5.418-2.639a.39.39,0,0,0-.342.7l5.093,2.48-.733,1.683L8.581,49.051a.391.391,0,0,0-.164-.036H4.7a.39.39,0,0,0-.107.015l-.3-1.068a.39.39,0,1,0-.751.212l.644,2.285H2.181l-.541-3.72A1.1,1.1,0,0,1,3.219,45.6l2.717,1.372.007,0a.389.389,0,0,0,.169.039H8.956l2.812,1.368a.39.39,0,0,0,.341-.7l-1.187-.578-1.279-.623.9-1.189h4.383a1.361,1.361,0,0,0,.723-.207l2.258-1.4a.39.39,0,0,0,.176-.255,1.125,1.125,0,0,0,.489-.287l.308-.308a1.133,1.133,0,0,0,0-1.6l-.517-.517a1.133,1.133,0,0,0-1.6,0l-.308.308a1.125,1.125,0,0,0-.288.492.394.394,0,0,0-.066.026L14,42.6l-3.528-.494a2.085,2.085,0,0,0,.553-.9l.091-.3a2.1,2.1,0,0,0-4.01-1.229l-.091.3a2.089,2.089,0,0,0,.123,1.537l-2.981-.442.865-.73a.39.39,0,0,0,.13-.222,1.124,1.124,0,0,0,.451-.276l.308-.308a1.133,1.133,0,0,0,0-1.6L5.4,37.421a1.133,1.133,0,0,0-1.6,0l-.308.308a1.124,1.124,0,0,0-.288.491.39.39,0,0,0-.2.095L.855,40.254a1.524,1.524,0,0,0,.388,2.519l3.974,1.814L5.534,45.9l-1.963-.991a1.877,1.877,0,0,0-2.7,1.946l.59,4.054a.389.389,0,0,0,.1.2,2.069,2.069,0,0,0-1.553,2,.39.39,0,0,0,.39.39h3.7c.215,0,.384-.218.5-.352s.078-.584.078-.666V51.24H4.7a.39.39,0,0,0,.376-.5L4.811,49.8h3.52l7.919,3.67a.389.389,0,0,0,.453-.092l1.464.7a1.243,1.243,0,0,0,1.657-.586l.054-.113A1.235,1.235,0,0,0,19.928,52.423ZM17,41.578l.308-.308a.352.352,0,0,1,.5,0l.517.517a.352.352,0,0,1,0,.5l-.308.308a.351.351,0,0,1-.5,0L17,42.075A.352.352,0,0,1,17,41.578Zm-2.985,1.814a.389.389,0,0,0,.23-.038l1.945-.984.886.909-1.847,1.146a.583.583,0,0,1-.31.089H10.344a.39.39,0,0,0-.312.155L9.182,45.8,8.707,44.36l1.008-1.569Zm-5.625.014-.311-.939a2.1,2.1,0,0,0,.773.218Zm-.627-3.2.091-.3a1.319,1.319,0,0,1,1.257-.931,1.318,1.318,0,0,1,1.26,1.7l-.091.3a1.317,1.317,0,0,1-2.518-.772ZM4.042,38.282l.308-.308a.352.352,0,0,1,.5,0l.517.517a.352.352,0,0,1,0,.5l-.308.308a.352.352,0,0,1-.5,0l-.517-.517A.352.352,0,0,1,4.042,38.282Zm1.1,4.345a.39.39,0,0,0-.287.471l.127.525-3.416-1.56a.744.744,0,0,1-.189-1.229l1.882-1.7.932.891L3,41.037a.39.39,0,0,0,.194.684l4.017.6,1.3,3.921H6.419l-.8-3.323A.39.39,0,0,0,5.143,42.627ZM3.894,52.483h0a.238.238,0,0,1-.238.238H.841a1.287,1.287,0,0,1,1.224-.895A.39.39,0,0,0,2.4,51.24H3.894v1.243Zm15.28.554-.054.113a.463.463,0,0,1-.616.218l-1.489-.711.235-.592.178-.373,1.528.729h0a.462.462,0,0,1,.218.616Z" transform="translate(2 -34.09)" fill="#0093dd"/>
</svg>
