<svg id="inner_filter_recreation_24x24" data-name="inner filter recreation 24x24" xmlns="http://www.w3.org/2000/svg" width="24" height="24" viewBox="0 0 24 24">
  <g id="Group_8963" data-name="Group 8963">
    <rect id="Rectangle_4" data-name="Rectangle 4" width="24" height="24" fill="none"/>
    <path id="Path_2567" data-name="Path 2567" d="M17.975,17.506a.5.5,0,0,0-.4-.34l-5.615-.8L9.43,11.288a.5.5,0,0,0-.447-.277h0a.5.5,0,0,0-.447.281L6.042,16.386l-5.615.835a.5.5,0,0,0-.4.34.493.493,0,0,0,.129.51L4.228,22.02l-.942,5.593a.5.5,0,0,0,.491.584.474.474,0,0,0,.233-.059l5.013-2.656,5.028,2.627a.51.51,0,0,0,.229.055h0a.5.5,0,0,0,.5-.5.39.39,0,0,0-.015-.115l-.972-5.56,4.049-3.971A.488.488,0,0,0,17.975,17.506Zm-5.061,3.957a.493.493,0,0,0-.14.443l.846,4.851L9.253,24.477a.505.505,0,0,0-.465,0L4.435,26.782l.816-4.858a.5.5,0,0,0-.144-.44L1.576,18.056l4.873-.724a.5.5,0,0,0,.373-.273l2.165-4.422,2.194,4.411a.508.508,0,0,0,.377.273l4.877.695Z" transform="translate(3 -8.011)" fill="#0093dd"/>
    <g id="Ellipse_828" data-name="Ellipse 828" transform="translate(10 10)" fill="none" stroke="#0093dd" stroke-width="1">
      <circle cx="2" cy="2" r="2" stroke="none"/>
      <circle cx="2" cy="2" r="1.5" fill="none"/>
    </g>
  </g>
</svg>
