<svg data-name="location 24x24" xmlns="http://www.w3.org/2000/svg" width="24" height="24" style=""><rect id="backgroundrect" width="100%" height="100%" x="0" y="0" fill="none" stroke="none"/>
  
  
<g class="currentLayer" style=""><title>Layer 1</title><rect id="Rectangle_4" data-name="Rectangle 4" width="24" height="24" fill="none" class="" y="0" x="33.513511657714844"/><g id="location-pin" class="selected" opacity="1" stroke-width="0" stroke-opacity="1" stroke="#0092dd" fill-opacity="1" fill="#0092dd">
    <g id="Group_5" data-name="Group 5" opacity="1" stroke-width="0" stroke="#0092dd" fill="#0092dd">
      <path id="Path_8" data-name="Path 8" d="M12.109001338481903,3 a6.116000175476074,6.116000175476074 0 0 0 -6.109000205993652,6.109000205993652 c0,1.3539999723434448 0.800000011920929,3.4119999408721924 2.507999897003174,6.478000164031982 c1.1679999828338623,2.0920000076293945 2.3299999237060547,3.8589999675750732 2.378999948501587,3.934000015258789 l0.8399999737739563,1.2730000019073486 a0.4580000042915344,0.4580000042915344 0 0 0 0.7639999985694885,0 l0.8399999737739563,-1.2730000019073486 c0.04899999871850014,-0.07400000095367432 1.2000000476837158,-1.8259999752044678 2.378999948501587,-3.934000015258789 c1.7109999656677246,-3.065999984741211 2.507999897003174,-5.125 2.507999897003174,-6.478000164031982 A6.116000175476074,6.116000175476074 0 0 0 12.109001338481903,3 zm2.799999952316284,12.140999794006348 c-1.159999966621399,2.0789999961853027 -2.299999952316284,3.799999952316284 -2.3440001010894775,3.875999927520752 l-0.4580000042915344,0.6940000057220459 l-0.4580000042915344,-0.6940000057220459 c-0.04800000041723251,-0.0729999989271164 -1.1920000314712524,-1.812999963760376 -2.3440001010894775,-3.875999927520752 C7.720001399517059,12.300000190734863 6.915001094341278,10.267000198364258 6.915001094341278,9.109000205993652 a5.192999839782715,5.192999839782715 0 1 1 10.38700008392334,0 C17.302002131938934,10.267000198364258 16.497001826763153,12.300000190734863 14.909996211528778,15.140999794006348 z" fill="#0092dd" opacity="1" stroke-width="0" stroke="#0092dd"/>
      <path id="Path_9" data-name="Path 9" d="M12.108993709087372,5.683998107910156 a3.38700008392334,3.38700008392334 0 1 0 3.38700008392334,3.38700008392334 A3.3910000324249268,3.3910000324249268 0 0 0 12.108993709087372,5.683998107910156 zm0,5.859000205993652 a2.4719998836517334,2.4719998836517334 0 1 1 2.4719998836517334,-2.4719998836517334 A2.4739999771118164,2.4739999771118164 0 0 1 12.108993709087372,11.542999267578125 z" fill="#0092dd" opacity="1" stroke-width="0" stroke="#0092dd"/>
    </g>
  </g></g></svg>