<svg id="location_16x16" data-name="location 16x16" xmlns="http://www.w3.org/2000/svg" width="16" height="16" viewBox="0 0 24 24">
  <rect id="Rectangle_4" data-name="Rectangle 4" width="16" height="16" fill="none"/>
  <g id="location-pin" transform="translate(6 3)">
    <g id="Group_5" data-name="Group 5" transform="translate(0)">
      <path id="Path_8" data-name="Path 8" d="M85.066,0a6.116,6.116,0,0,0-6.109,6.109c0,1.354.8,3.412,2.508,6.478,1.168,2.092,2.33,3.859,2.379,3.934l.84,1.273a.458.458,0,0,0,.764,0l.84-1.273c.049-.074,1.2-1.826,2.379-3.934,1.711-3.066,2.508-5.125,2.508-6.478A6.116,6.116,0,0,0,85.066,0Zm2.8,12.141c-1.16,2.079-2.3,3.8-2.344,3.876l-.458.694-.458-.694c-.048-.073-1.192-1.813-2.344-3.876C80.677,9.3,79.872,7.267,79.872,6.109a5.193,5.193,0,1,1,10.387,0C90.259,7.267,89.454,9.3,87.867,12.141Z" transform="translate(-78.957)" fill="#0092dd"/>
      <path id="Path_9" data-name="Path 9" d="M156.678,73.291a3.387,3.387,0,1,0,3.387,3.387A3.391,3.391,0,0,0,156.678,73.291Zm0,5.859a2.472,2.472,0,1,1,2.472-2.472A2.474,2.474,0,0,1,156.678,79.15Z" transform="translate(-150.569 -70.607)" fill="#0092dd"/>
    </g>
  </g>
</svg>
