<svg xmlns="http://www.w3.org/2000/svg" width="24" height="24" viewBox="0 0 24 24">
  <defs>
    <style>.a{fill:#2b2b2b;}</style>
  </defs>
  <g transform="translate(0 0)">
    <path class="a" d="M19.289,24a10.308,10.308,0,0,1-3.531-.751,26.49,26.49,0,0,1-8.908-6.1,26.509,26.509,0,0,1-6.1-8.91c-1-2.644-1-4.814-.006-5.806.143-.143.288-.3.438-.454C2.088,1.026,3.113-.047,4.47,0a3.936,3.936,0,0,1,2.77,1.775C9.984,5.188,8.747,6.4,7.316,7.813l-.253.25C6.829,8.3,6.387,9.382,10.5,13.5a22.819,22.819,0,0,0,3.4,2.921c.576.375,1.607.941,2.03.518l.254-.257c1.408-1.428,2.624-2.661,6.033.08A3.933,3.933,0,0,1,24,19.531c.056,1.357-1.025,2.384-1.979,3.289-.157.15-.311.3-.454.438A3.144,3.144,0,0,1,19.289,24ZM4.374.807c-.965,0-1.836.917-2.607,1.728-.155.163-.305.321-.453.469-.74.739-.665,2.682.191,4.952A25.7,25.7,0,0,0,7.422,16.58a25.679,25.679,0,0,0,8.622,5.915c2.269.857,4.212.93,4.951.191.148-.148.306-.3.469-.452.829-.788,1.769-1.681,1.728-2.671a3.264,3.264,0,0,0-1.473-2.176c-2.841-2.284-3.635-1.478-4.952-.142l-.258.261c-.63.63-1.652.491-3.041-.412a23.571,23.571,0,0,1-3.535-3.028c-3.415-3.415-4.508-5.5-3.439-6.576l.258-.254C8.09,5.919,8.9,5.124,6.613,2.281A3.274,3.274,0,0,0,4.437.808Z" transform="translate(0 0)"/>
  </g>
</svg>