<svg data-name="profile call button 30x30" xmlns="http://www.w3.org/2000/svg" width="30" height="30" style=""><rect id="backgroundrect" width="100%" height="100%" x="0" y="0" fill="none" stroke="none"/>


<g class="currentLayer" style=""><title>Layer 1</title><g id="phone-call" class="" stroke-opacity="1" stroke="#5b5b5b">
    <path id="Path_1578" data-name="Path 1578" d="M28.5,34 a12.026000022888184,12.026000022888184 0 0 1 -4.11899995803833,-0.8759999871253967 A30.899999618530273,30.899999618530273 0 0 1 13.992000579833984,26.007999420166016 A30.927000045776367,30.927000045776367 0 0 1 6.874000072479248,15.61400032043457 C5.710999965667725,12.528999328613281 5.708000183105469,10 6.867000102996826,8.83899974822998 c0.16699999570846558,-0.16699999570846558 0.335999995470047,-0.34599998593330383 0.5109999775886536,-0.5299999713897705 C8.435999870300293,7.199999809265137 9.631999969482422,5.945000171661377 11.215999603271484,6 A4.5920000076293945,4.5920000076293945 0 0 1 14.447999954223633,8.072999954223633 c3.200000047683716,3.9800000190734863 1.7569999694824219,5.400000095367432 0.08799999952316284,7.043000221252441 l-0.29499998688697815,0.2919999957084656 c-0.27300000190734863,0.27300000190734863 -0.7889999747276306,1.5379999876022339 4.01200008392334,6.339000225067139 a26.62299919128418,26.62299919128418 0 0 0 3.9719998836517334,3.4079999923706055 c0.671999990940094,0.43700000643730164 1.875,1.100000023841858 2.36899995803833,0.6000000238418579 l0.30000001192092896,-0.30000001192092896 c1.6419999599456787,-1.6660000085830688 3.061000108718872,-3.0999999046325684 7.038000106811523,0.09300000220537186 A4.5879998207092285,4.5879998207092285 0 0 1 34,28.785999298095703 c0.06499999761581421,1.5829999446868896 -1.2000000476837158,2.7809998989105225 -2.309000015258789,3.8380000591278076 c-0.18400000035762787,0.17499999701976776 -0.3630000054836273,0.3449999988079071 -0.5289999842643738,0.5099999904632568 A3.6689999103546143,3.6689999103546143 0 0 1 28.5,34 zM11.100000381469727,6.941999912261963 c-1.125,0 -2.1419999599456787,1.0700000524520874 -3.0409998893737793,2.0160000324249268 c-0.1809999942779541,0.1899999976158142 -0.35600000619888306,0.375 -0.527999997138977,0.546999990940094 c-0.8640000224113464,0.8629999756813049 -0.7760000228881836,3.130000114440918 0.22200000286102295,5.7769999504089355 a29.979999542236328,29.979999542236328 0 0 0 6.900000095367432,10.060999870300293 a29.95800018310547,29.95800018310547 0 0 0 10.059000015258789,6.900000095367432 c2.6470000743865967,1 4.914000034332275,1.0850000381469727 5.776000022888184,0.22300000488758087 c0.1720000058412552,-0.1720000058412552 0.3569999933242798,-0.3479999899864197 0.546999990940094,-0.5270000100135803 c0.9670000076293945,-0.9190000295639038 2.063999891281128,-1.9609999656677246 2.0160000324249268,-3.115999937057495 a3.808000087738037,3.808000087738037 0 0 0 -1.718999981880188,-2.5380001068115234 c-3.313999891281128,-2.6649999618530273 -4.241000175476074,-1.7239999771118164 -5.7779998779296875,-0.16599999368190765 l-0.30000001192092896,0.30000001192092896 c-0.7350000143051147,0.7360000014305115 -1.9279999732971191,0.5730000138282776 -3.5480000972747803,-0.47999998927116394 a27.5,27.5 0 0 1 -4.124000072479248,-3.5329999923706055 C13.600000381469727,18.427000045776367 12.329000473022461,15.98900032043457 13.576000213623047,14.73900032043457 l0.30000001192092896,-0.30000001192092896 c1.562000036239624,-1.5369999408721924 2.505000114440918,-2.4649999141693115 -0.16099999845027924,-5.781000137329102 A3.819999933242798,3.819999933242798 0 0 0 11.176000595092773,6.942999839782715 z" fill="#0094e0" stroke="#5b5b5b" stroke-width="1"/>
  </g><rect id="Rectangle_6" data-name="Rectangle 6" width="30" height="30" fill="none" class="" y="0" x="-0.0000069141387939453125"/></g></svg>