<svg xmlns="http://www.w3.org/2000/svg" width="33.221" height="26.5" viewBox="0 0 33.221 26.5">
  <g id="Group_9950" data-name="Group 9950" transform="translate(-59.779 -124.5)">
    <g id="youtube_1_" data-name="youtube (1)" transform="translate(59.779 124.5)">
      <path id="Path_2304" data-name="Path 2304" d="M4.207,21.877H24.513a4.212,4.212,0,0,0,4.207-4.207V4.207A4.212,4.212,0,0,0,24.513,0H4.207A4.212,4.212,0,0,0,0,4.207V17.67A4.212,4.212,0,0,0,4.207,21.877ZM1.683,4.207A2.527,2.527,0,0,1,4.207,1.683H24.513a2.527,2.527,0,0,1,2.524,2.524V17.67a2.527,2.527,0,0,1-2.524,2.524H4.207A2.527,2.527,0,0,1,1.683,17.67Zm0,0" fill="#0092dd"/>
      <path id="Path_2305" data-name="Path 2305" d="M181,94.508v11.438l10.125-5.813Zm1.683,2.86,5.02,2.789-5.02,2.882Zm0,0" transform="translate(-170.847 -89.206)" fill="#0092dd"/>
    </g>
    <g id="Ellipse_173" data-name="Ellipse 173" transform="translate(78 136)" fill="#fff" stroke="#0092dd" stroke-width="1.5">
      <circle cx="7.5" cy="7.5" r="7.5" stroke="none"/>
      <circle cx="7.5" cy="7.5" r="6.75" fill="none"/>
    </g>
    <g id="Group_7558" data-name="Group 7558" transform="translate(0.5 -574.5)">
      <line id="Line_775" data-name="Line 775" y2="7" transform="translate(85 714.5)" fill="none" stroke="#0092dd" stroke-linecap="round" stroke-width="1.7"/>
      <line id="Line_776" data-name="Line 776" y2="7" transform="translate(88.5 718) rotate(90)" fill="none" stroke="#0092dd" stroke-linecap="round" stroke-width="1.7"/>
    </g>
  </g>
</svg>
