<svg xmlns="http://www.w3.org/2000/svg" width="120" height="120" viewBox="0 0 120 120">
  <path id="ratings_score_120x120" data-name="ratings score 120x120" d="M117.4,55.431a9.2,9.2,0,0,0,2.177-9.207,8.664,8.664,0,0,0-6.949-6.115L83.568,35.7a3.811,3.811,0,0,1-2.859-2.169L67.718,6.053a8.451,8.451,0,0,0-15.434,0L39.292,33.533A3.815,3.815,0,0,1,36.43,35.7L7.374,40.112A8.657,8.657,0,0,0,.427,46.224,9.2,9.2,0,0,0,2.6,55.431L23.627,76.819a4.08,4.08,0,0,1,1.1,3.511l-4.962,30.2a9.111,9.111,0,0,0,3.422,8.783,8.238,8.238,0,0,0,9.064.685l25.985-14.261a3.663,3.663,0,0,1,3.537,0L87.756,120a8.256,8.256,0,0,0,9.064-.685,9.111,9.111,0,0,0,3.422-8.783l-4.964-30.2a4.078,4.078,0,0,1,1.1-3.511Z" transform="translate(0 -1.047)" fill="#fc0"/>
</svg>
