<svg id="schedule_16x16" data-name="schedule 16x16" xmlns="http://www.w3.org/2000/svg" width="16" height="16" viewBox="0 0 24 24">
  <rect id="Rectangle_4" data-name="Rectangle 4" width="16" height="16" fill="none"/>
  <g id="clock" transform="translate(3 3)">
    <g id="Group_204" data-name="Group 204" transform="translate(0 0)">
      <g id="Group_205" data-name="Group 205" transform="translate(0 0)">
        <path id="Path_96" data-name="Path 96" d="M17.282,5.66A8.819,8.819,0,0,0,12.489.886a8.846,8.846,0,0,0-3.5-.718A8.755,8.755,0,0,0,5.492.886,8.846,8.846,0,0,0,.709,5.66a8.992,8.992,0,0,0,0,7A8.865,8.865,0,0,0,5.492,17.44a8.755,8.755,0,0,0,3.494.718,8.849,8.849,0,0,0,3.5-.718,8.838,8.838,0,0,0,4.793-4.783,8.878,8.878,0,0,0,0-7Zm-1.437,7.47a7.9,7.9,0,0,1-2.893,2.884,7.752,7.752,0,0,1-3.966,1.063,7.621,7.621,0,0,1-3.071-.63A8.047,8.047,0,0,1,3.4,14.763a8,8,0,0,1-1.683-2.529,7.748,7.748,0,0,1-.62-3.08A7.737,7.737,0,0,1,2.146,5.2,7.9,7.9,0,0,1,5.029,2.314,7.692,7.692,0,0,1,8.985,1.251a7.751,7.751,0,0,1,3.966,1.063A7.92,7.92,0,0,1,15.845,5.2a7.692,7.692,0,0,1,1.063,3.956A7.766,7.766,0,0,1,15.845,13.129Z" transform="translate(0 -0.168)" fill="#0092dd"/>
        <path id="Path_97" data-name="Path 97" d="M288.205,116.57v-5.1a.567.567,0,0,0-.571-.551.555.555,0,0,0-.541.551v5.177a.448.448,0,0,1,.02.079.515.515,0,0,0,.148.443l2.943,2.943a.56.56,0,0,0,.758,0,.531.531,0,0,0,0-.768Z" transform="translate(-278.649 -107.664)" fill="#0092dd"/>
      </g>
    </g>
  </g>
</svg>
