<svg id="settings" xmlns="http://www.w3.org/2000/svg" width="23.803" height="23.803" viewBox="0 0 23.803 23.803">
  <defs>
    <style>
      .cls-1 {
        fill: #1792dd;
      }
    </style>
  </defs>
  <g id="Group_9917" data-name="Group 9917" transform="translate(0 7.934)">
    <g id="Group_9916" data-name="Group 9916">
      <path id="Path_2727" data-name="Path 2727" class="cls-1" d="M14.678,165.951h-.436a.39.39,0,0,1-.367-.256c-.048-.127-.1-.251-.156-.374a.391.391,0,0,1,.079-.443l.311-.311a1.193,1.193,0,0,0,0-1.682l-1.121-1.121a1.193,1.193,0,0,0-1.682,0l-.311.311a.393.393,0,0,1-.443.079c-.123-.056-.247-.108-.374-.159a.39.39,0,0,1-.257-.368v-.436A1.19,1.19,0,0,0,8.728,160H7.141a1.19,1.19,0,0,0-1.19,1.19v.436a.39.39,0,0,1-.256.367c-.127.048-.251.1-.374.156a.392.392,0,0,1-.443-.079l-.311-.311a1.193,1.193,0,0,0-1.682,0l-1.121,1.125a1.193,1.193,0,0,0,0,1.682l.311.311a.391.391,0,0,1,.079.443c-.056.123-.108.247-.157.374a.39.39,0,0,1-.37.256H1.19A1.19,1.19,0,0,0,0,167.141v1.587a1.19,1.19,0,0,0,1.19,1.19h.436a.39.39,0,0,1,.367.256c.048.127.1.251.156.374a.391.391,0,0,1-.079.443l-.311.311a1.193,1.193,0,0,0,0,1.682l1.121,1.121a1.193,1.193,0,0,0,1.682,0l.311-.311a.393.393,0,0,1,.443-.079c.123.056.247.108.374.159a.39.39,0,0,1,.259.368v.436a1.19,1.19,0,0,0,1.19,1.19H8.728a1.19,1.19,0,0,0,1.19-1.19v-.436a.39.39,0,0,1,.256-.367c.127-.048.251-.1.374-.156a.392.392,0,0,1,.443.079l.311.311a1.193,1.193,0,0,0,1.682,0l1.121-1.121a1.193,1.193,0,0,0,0-1.682l-.311-.311a.391.391,0,0,1-.079-.443c.056-.123.108-.247.159-.374a.39.39,0,0,1,.368-.257h.436a1.19,1.19,0,0,0,1.19-1.19v-1.587A1.19,1.19,0,0,0,14.678,165.951Zm.4,2.777a.4.4,0,0,1-.4.4h-.436a1.194,1.194,0,0,0-1.111.767q-.063.167-.136.328a1.194,1.194,0,0,0,.238,1.331l.31.311a.4.4,0,0,1,0,.561h0l-1.121,1.121a.4.4,0,0,1-.561,0l-.311-.311A1.193,1.193,0,0,0,10.219,173c-.108.049-.217.094-.327.136a1.194,1.194,0,0,0-.767,1.11v.436a.4.4,0,0,1-.4.4H7.141a.4.4,0,0,1-.4-.4v-.436a1.194,1.194,0,0,0-.767-1.111q-.167-.063-.328-.136a1.194,1.194,0,0,0-1.331.238l-.311.31a.4.4,0,0,1-.561,0h0l-1.121-1.12a.4.4,0,0,1,0-.561l.311-.311a1.194,1.194,0,0,0,.238-1.331c-.049-.108-.094-.217-.136-.327a1.194,1.194,0,0,0-1.11-.768H1.19a.4.4,0,0,1-.4-.4v-1.587a.4.4,0,0,1,.4-.4h.436a1.194,1.194,0,0,0,1.111-.767q.063-.167.136-.328a1.194,1.194,0,0,0-.238-1.331l-.312-.311a.4.4,0,0,1,0-.561h0l1.121-1.121a.4.4,0,0,1,.561,0l.311.311a1.193,1.193,0,0,0,1.331.238c.108-.049.217-.094.327-.136a1.194,1.194,0,0,0,.768-1.11v-.436a.4.4,0,0,1,.4-.4H8.728a.4.4,0,0,1,.4.4v.436a1.194,1.194,0,0,0,.767,1.111q.167.063.328.136a1.193,1.193,0,0,0,1.331-.238l.311-.31a.4.4,0,0,1,.561,0l1.121,1.121a.4.4,0,0,1,0,.561l-.311.311A1.194,1.194,0,0,0,13,165.65c.049.108.094.217.136.327a1.194,1.194,0,0,0,1.11.767h.436a.4.4,0,0,1,.4.4v1.587Z" transform="translate(0 -160)"/>
    </g>
  </g>
  <g id="Group_9919" data-name="Group 9919" transform="translate(4.362 12.298)">
    <g id="Group_9918" data-name="Group 9918">
      <path id="Path_2728" data-name="Path 2728" class="cls-1" d="M95.093,251.412c0-.1-.011-.19-.022-.284s-.028-.2-.049-.3c-.014-.065-.032-.129-.05-.193q-.033-.123-.075-.242c-.019-.055-.04-.11-.06-.164a3.536,3.536,0,0,0-.175-.371c-.005-.009-.008-.019-.013-.028a3.52,3.52,0,0,0-.357-.52c-.012-.014-.025-.028-.036-.042-.055-.065-.111-.127-.17-.187-.031-.032-.063-.062-.1-.093s-.079-.073-.119-.108-.1-.082-.147-.121l-.065-.048A3.545,3.545,0,0,0,91.531,248c-.04,0-.079.006-.119.008-.084,0-.169.007-.255.016l-.135.016a3.635,3.635,0,0,0-.384.072,3.572,3.572,0,0,0,0,6.918.091.091,0,0,1,.02,0,3.784,3.784,0,0,0,.416.079c.092.012.185.014.278.018.062,0,.119.012.184.012.113,0,.23-.008.35-.019a.39.39,0,0,0,.04-.005c.1-.011.194-.025.294-.045.04-.008.077-.017.115-.026.07-.016.139-.033.211-.054.056-.017.109-.036.164-.055l.167-.061c.056-.021.1-.046.155-.07.067-.031.133-.061.2-.1h0a4.7,4.7,0,0,0,1.017-.734,1.249,1.249,0,0,0,.213-.26,4.235,4.235,0,0,0,.6-1.63c.011-.077.021-.153.027-.231s.01-.143.011-.215c0-.023,0-.044,0-.067C95.1,251.517,95.1,251.466,95.093,251.412Zm-.791.26c0,.033,0,.066,0,.1-.007.1-.019.192-.036.288A2.783,2.783,0,0,1,92.868,254c-.049.026-.1.05-.146.072l-.033.016a2.865,2.865,0,0,1-.724.219l-.053.008c-.05.007-.1.013-.147.017-.064.006-.128.009-.194.01h-.083a2.787,2.787,0,0,1-.281-.017l-.048-.006a2.936,2.936,0,0,1-.324-.061,2.777,2.777,0,0,1,0-5.38h0a2.872,2.872,0,0,1,.7-.087,2.741,2.741,0,0,1,.339.023l.09.013c.086.013.171.031.254.052l.082.021a2.8,2.8,0,0,1,.6.255l.09.055c.063.04.123.079.183.125.032.023.065.046.1.071a2.864,2.864,0,0,1,.223.2c.028.029.054.06.081.09.046.05.09.1.132.154.029.037.058.075.085.113.04.057.079.117.115.177l.06.1a2.721,2.721,0,0,1,.136.291c.016.04.029.079.044.119.026.073.048.147.067.221.01.04.021.075.029.113a2.8,2.8,0,0,1,.05.325c0,.029,0,.058,0,.087C94.3,251.488,94.306,251.58,94.3,251.672Z" transform="translate(-87.959 -248)"/>
    </g>
  </g>
  <g id="Group_9921" data-name="Group 9921" transform="translate(4.327)">
    <g id="Group_9920" data-name="Group 9920">
      <path id="Path_2729" data-name="Path 2729" class="cls-1" d="M105.547,8.331H104.3a.387.387,0,0,1-.37-.26A8.262,8.262,0,0,0,103.484,7a.388.388,0,0,1,.076-.448l.885-.886a1.19,1.19,0,0,0,0-1.682l-1.687-1.684a1.19,1.19,0,0,0-1.682,0l-.884.884a.388.388,0,0,1-.447.077,8.242,8.242,0,0,0-1.076-.448.387.387,0,0,1-.262-.37V1.19A1.19,1.19,0,0,0,97.216,0h-2.38a1.19,1.19,0,0,0-1.19,1.19V2.438a.387.387,0,0,1-.26.37,8.267,8.267,0,0,0-1.075.447.388.388,0,0,1-.448-.076l-.886-.885a1.193,1.193,0,0,0-1.682,0L87.61,3.978a1.19,1.19,0,0,0,0,1.683l1.3,1.3a.4.4,0,0,0,.562-.56l-1.3-1.3a.4.4,0,0,1,0-.561l1.684-1.684a.4.4,0,0,1,.561,0l.886.885a1.179,1.179,0,0,0,1.363.224,7.506,7.506,0,0,1,.972-.4,1.18,1.18,0,0,0,.8-1.123V1.19a.4.4,0,0,1,.4-.4h2.38a.4.4,0,0,1,.4.4V2.438a1.18,1.18,0,0,0,.8,1.122,7.482,7.482,0,0,1,.973.4,1.182,1.182,0,0,0,1.363-.224l.886-.884a.4.4,0,0,1,.561,0L103.88,4.54a.4.4,0,0,1,0,.561L103,5.987a1.181,1.181,0,0,0-.224,1.363,7.505,7.505,0,0,1,.4.972,1.18,1.18,0,0,0,1.123.8h1.248a.4.4,0,0,1,.4.4V11.9a.4.4,0,0,1-.4.4H104.3a1.18,1.18,0,0,0-1.122.8,7.476,7.476,0,0,1-.4.973A1.181,1.181,0,0,0,103,15.435l.885.886a.4.4,0,0,1,0,.561L102.2,18.566a.4.4,0,0,1-.561,0l-1.3-1.3a.4.4,0,1,0-.57.552l.01.01,1.3,1.3a1.19,1.19,0,0,0,1.682,0l1.684-1.683a1.19,1.19,0,0,0,0-1.683l-.883-.885a.389.389,0,0,1-.077-.447,8.241,8.241,0,0,0,.448-1.076.387.387,0,0,1,.37-.262h1.248a1.19,1.19,0,0,0,1.19-1.19V9.521A1.19,1.19,0,0,0,105.547,8.331Z" transform="translate(-87.261)"/>
    </g>
  </g>
  <g id="Group_9923" data-name="Group 9923" transform="translate(9.334 5.556)">
    <g id="Group_9922" data-name="Group 9922">
      <path id="Path_2730" data-name="Path 2730" class="cls-1" d="M195.623,113.557a5.162,5.162,0,0,0-7.293,0,.4.4,0,0,0,.561.561,4.364,4.364,0,0,1,6.213,6.13l-.041.041a.4.4,0,0,0,.551.571l.01-.01A5.162,5.162,0,0,0,195.623,113.557Z" transform="translate(-188.219 -112.049)"/>
    </g>
  </g>
</svg>
