<svg xmlns="http://www.w3.org/2000/svg" width="95" height="104.697" viewBox="0 0 95 104.697">
  <g id="shield" transform="translate(-23.724)">
    <path id="Path_98" data-name="Path 98" d="M71.224,104.7h0a73.114,73.114,0,0,0,47.5-68.48V17.732A17.733,17.733,0,0,1,100.99,0H41.457A17.733,17.733,0,0,1,23.724,17.732V36.217a73.115,73.115,0,0,0,47.5,68.48Z" transform="translate(0)" fill="#1792d9"/>
    <path id="Path_99" data-name="Path 99" d="M256,104.7h0a73.114,73.114,0,0,0,47.5-68.48V17.732A17.732,17.732,0,0,1,285.767,0H256V104.7Z" transform="translate(-184.776)" fill="#0e67a9"/>
    <path id="Path_100" data-name="Path 100" d="M162.387,199.792,146.64,184.046l8.676-8.676,7.071,7.07,20.3-20.3,8.676,8.676Z" transform="translate(-97.78 -128.982)" fill="#f1f1f2"/>
    <path id="Path_101" data-name="Path 101" d="M256,193.175V175.824l13.688-13.687,8.676,8.676Z" transform="translate(-184.776 -128.982)" fill="#e6e6e6"/>
  </g>
</svg>
