<svg xmlns="http://www.w3.org/2000/svg" width="53.503" height="46.714" viewBox="0 0 53.503 46.714">
  <defs>
    <style>
      .cls-1 {
        opacity: 0.599;
      }

      .cls-2 {
        fill: #fff;
      }
    </style>
  </defs>
  <g id="shop_1_" data-name="shop (1)" class="cls-1">
    <g id="Group_8153" data-name="Group 8153">
      <path id="Path_2403" data-name="Path 2403" class="cls-2" d="M259.078,263.75h-7.27a3.611,3.611,0,0,0-3.608,3.608v5.575a3.611,3.611,0,0,0,3.608,3.608h7.27a3.611,3.611,0,0,0,3.608-3.608v-5.575A3.611,3.611,0,0,0,259.078,263.75Zm.984,9.183a.987.987,0,0,1-.984.984h-7.27a.987.987,0,0,1-.984-.984v-5.575a.987.987,0,0,1,.984-.984h7.27a.987.987,0,0,1,.984.984Z" transform="translate(-221.066 -238.311)"/>
      <path id="Path_2404" data-name="Path 2404" class="cls-2" d="M53.5,46.355a1.218,1.218,0,0,0-.175-.645L45.369,31.717a1.319,1.319,0,0,0-1.137-.667H9.26a1.3,1.3,0,0,0-1.137.667L.175,45.71A1.326,1.326,0,0,0,0,46.355a7.674,7.674,0,0,0,4.592,7.019V76.452A1.316,1.316,0,0,0,5.9,77.764H47.588A1.316,1.316,0,0,0,48.9,76.452V53.538a.577.577,0,0,0-.011-.142A7.7,7.7,0,0,0,53.5,46.355ZM10.025,33.685H43.467l6.22,10.943H3.815ZM38.077,47.241a5.042,5.042,0,0,1-9.927,0Zm-12.714,0a5.049,5.049,0,0,1-9.937,0Zm-22.652,0h9.937a5.049,5.049,0,0,1-9.937,0ZM22.04,75.14H14.5V60.983a1.869,1.869,0,0,1,1.869-1.869h3.815a1.869,1.869,0,0,1,1.869,1.869V75.14Zm24.237,0H24.663V60.983A4.5,4.5,0,0,0,20.17,56.49H16.355a4.5,4.5,0,0,0-4.493,4.493V75.151H7.215V54.019c.153.011.306.011.459.011a7.665,7.665,0,0,0,6.363-3.389,7.667,7.667,0,0,0,12.725,0,7.647,7.647,0,0,0,12.7,0,7.665,7.665,0,0,0,6.363,3.389c.153,0,.3-.011.448-.011V75.14Zm-.448-23.734a5.039,5.039,0,0,1-4.963-4.154H50.8A5.07,5.07,0,0,1,45.828,51.406Z" transform="translate(0 -31.05)"/>
    </g>
  </g>
</svg>
