<svg xmlns="http://www.w3.org/2000/svg" width="88.855" height="77.58" viewBox="0 0 88.855 77.58"><defs><style>.a{opacity:0.599;}.b{fill:#fff;}</style></defs><g class="a"><path class="b" d="M266.265,263.75H254.192a6,6,0,0,0-5.992,5.992V279a6,6,0,0,0,5.992,5.991h12.074A6,6,0,0,0,272.257,279v-9.259A6,6,0,0,0,266.265,263.75ZM267.9,279a1.639,1.639,0,0,1-1.634,1.634H254.192A1.639,1.639,0,0,1,252.557,279v-9.259a1.639,1.639,0,0,1,1.634-1.634h12.074a1.639,1.639,0,0,1,1.634,1.634Z" transform="translate(-203.137 -221.501)"/><path class="b" d="M88.855,56.468a2.022,2.022,0,0,0-.29-1.071L75.347,32.158a2.19,2.19,0,0,0-1.888-1.108H15.378a2.153,2.153,0,0,0-1.888,1.108L.29,55.4A2.2,2.2,0,0,0,0,56.468,12.745,12.745,0,0,0,7.625,68.124v38.327A2.185,2.185,0,0,0,9.8,108.63H79.033a2.185,2.185,0,0,0,2.179-2.179V68.4a.959.959,0,0,0-.018-.236A12.781,12.781,0,0,0,88.855,56.468ZM16.649,35.426H72.188L82.519,53.6H6.336ZM63.237,57.939a8.374,8.374,0,0,1-16.486,0Zm-21.115,0a8.384,8.384,0,0,1-16.5,0Zm-37.619,0h16.5a8.384,8.384,0,0,1-16.5,0Zm32.1,46.334H24.075V80.761a3.1,3.1,0,0,1,3.1-3.1h6.336a3.1,3.1,0,0,1,3.1,3.1v23.512Zm40.252,0H40.96V80.761A7.473,7.473,0,0,0,33.5,73.3H27.161A7.473,7.473,0,0,0,19.7,80.761v23.53H11.983V69.2c.254.018.508.018.763.018a12.729,12.729,0,0,0,10.567-5.628,12.733,12.733,0,0,0,21.133,0,12.7,12.7,0,0,0,21.1,0,12.729,12.729,0,0,0,10.567,5.628c.254,0,.49-.018.744-.018v35.077Zm-.744-39.416a8.369,8.369,0,0,1-8.243-6.9h16.5A8.42,8.42,0,0,1,76.109,64.856Z" transform="translate(0 -31.05)"/></g></svg>