<svg xmlns="http://www.w3.org/2000/svg" xmlns:xlink="http://www.w3.org/1999/xlink" width="109.468" height="104.54" viewBox="0 0 109.468 104.54">
  <defs>
    <style>
      .cls-1 {
        fill: #0092dd;
      }

      .cls-2 {
        fill: #54b948;
      }

      .cls-3 {
        fill: #fff;
      }

      .cls-4 {
        filter: url(#Ellipse_809);
      }
    </style>
    <filter id="Ellipse_809" x="66.078" y="61.15" width="43.39" height="43.39" filterUnits="userSpaceOnUse">
      <feOffset dy="1" input="SourceAlpha"/>
      <feGaussianBlur stdDeviation="1" result="blur"/>
      <feFlood flood-opacity="0.161"/>
      <feComposite operator="in" in2="blur"/>
      <feComposite in="SourceGraphic"/>
    </filter>
  </defs>
  <g id="Group_8699" data-name="Group 8699" transform="translate(0 0)">
    <g id="Group_8153" data-name="Group 8153" transform="translate(0 0)">
      <path id="Path_2403" data-name="Path 2403" class="cls-1" d="M269.308,263.75H255.2a7.008,7.008,0,0,0-7,7V281.57a7.008,7.008,0,0,0,7,7h14.107a7.008,7.008,0,0,0,7-7V270.751A7.008,7.008,0,0,0,269.308,263.75Zm1.909,17.82a1.915,1.915,0,0,1-1.909,1.909H255.2a1.915,1.915,0,0,1-1.909-1.909V270.751a1.915,1.915,0,0,1,1.909-1.909h14.107a1.915,1.915,0,0,1,1.909,1.909Z" transform="translate(-195.546 -214.385)"/>
      <path id="Path_2404" data-name="Path 2404" class="cls-1" d="M103.822,60.75a2.363,2.363,0,0,0-.339-1.252L88.039,32.344a2.559,2.559,0,0,0-2.206-1.294H17.968a2.516,2.516,0,0,0-2.206,1.294L.339,59.5A2.574,2.574,0,0,0,0,60.75a14.892,14.892,0,0,0,8.91,13.62v44.783a2.553,2.553,0,0,0,2.546,2.546h80.89a2.553,2.553,0,0,0,2.546-2.546V74.688a1.12,1.12,0,0,0-.021-.276A14.934,14.934,0,0,0,103.822,60.75ZM19.453,36.163H84.348L96.419,57.4H7.4ZM73.889,62.468a9.784,9.784,0,0,1-19.263,0Zm-24.672,0a9.8,9.8,0,0,1-19.284,0Zm-43.956,0H24.545a9.8,9.8,0,0,1-19.284,0Zm37.507,54.139H28.13V89.135a3.626,3.626,0,0,1,3.628-3.628h7.4a3.626,3.626,0,0,1,3.628,3.628v27.472Zm47.032,0H47.859V89.135a8.732,8.732,0,0,0-8.719-8.719h-7.4a8.732,8.732,0,0,0-8.719,8.719v27.494H14V75.621c.3.021.594.021.891.021a14.873,14.873,0,0,0,12.347-6.576,14.878,14.878,0,0,0,24.693,0,14.838,14.838,0,0,0,24.651,0A14.873,14.873,0,0,0,88.93,75.642c.3,0,.573-.021.87-.021v40.986Zm-.87-46.056A9.779,9.779,0,0,1,79.3,62.489H98.582A9.839,9.839,0,0,1,88.93,70.551Z" transform="translate(0 -31.05)"/>
    </g>
    <g id="Group_8700" data-name="Group 8700" transform="translate(69.078 63.15)">
      <g class="cls-4" transform="matrix(1, 0, 0, 1, -69.08, -63.15)">
        <circle id="Ellipse_809-2" data-name="Ellipse 809" class="cls-2" cx="18.695" cy="18.695" r="18.695" transform="translate(69.08 63.15)"/>
      </g>
      <g id="surface1" transform="translate(7.011 7.011)">
        <path id="Path_2505" data-name="Path 2505" class="cls-3" d="M25.853,4.967,23.758,3.543A1.271,1.271,0,0,0,22,3.876L11.727,19.021,7.007,14.3a1.267,1.267,0,0,0-1.789,0L3.424,16.095a1.273,1.273,0,0,0,0,1.794l7.257,7.257a2.461,2.461,0,0,0,1.62.717,1.949,1.949,0,0,0,1.529-.9L26.191,6.725A1.264,1.264,0,0,0,25.853,4.967Z" transform="translate(-3.055 -3.325)"/>
      </g>
    </g>
  </g>
</svg>
