<svg xmlns="http://www.w3.org/2000/svg" width="24" height="24" viewBox="0 0 24 24">
    <g transform="translate(9757.326 20339)">
        <g transform="translate(-9746.463 -20339) rotate(90)">
            <g transform="translate(0 0)">
                <path fill="#0092DD" d="M20.951,4.41l.02,0-17.359,0L6.364,1.653a.723.723,0,0,0,0-1.016L5.935.209a.716.716,0,0,0-1.011,0L.209,4.924a.721.721,0,0,0,0,1.014l4.716,4.716a.717.717,0,0,0,1.011,0l.428-.428a.708.708,0,0,0,.209-.505.687.687,0,0,0-.209-.5L3.581,6.453l17.38,0a.741.741,0,0,0,.725-.734V5.118A.727.727,0,0,0,20.951,4.41Z"/>
            </g>
        </g>
        <g transform="translate(-9744.54 -20317.248) rotate(-90)">
            <g transform="translate(0 0)">
                <path fill="#0092DD" d="M21.017,4.465l.02,0L3.612,4.41,6.364,1.653a.723.723,0,0,0,0-1.016L5.935.209a.716.716,0,0,0-1.011,0L.209,4.924a.721.721,0,0,0,0,1.014l4.716,4.716a.717.717,0,0,0,1.011,0l.428-.428a.708.708,0,0,0,.209-.505.687.687,0,0,0-.209-.5L3.581,6.453l17.445.059a.741.741,0,0,0,.725-.734V5.172A.727.727,0,0,0,21.017,4.465Z"/>
            </g>
        </g>
    </g>
</svg>