<svg id="inner_filter_highest_rated_24x24" data-name="inner filter highest rated 24x24" xmlns="http://www.w3.org/2000/svg" width="24" height="24" viewBox="0 0 24 24">
  <rect id="Rectangle_4" data-name="Rectangle 4" width="24" height="24" fill="none"/>
  <path id="Path_2567" data-name="Path 2567" d="M19.973,18.227a.558.558,0,0,0-.447-.378l-6.239-.887-2.808-5.644a.556.556,0,0,0-.5-.308h0a.553.553,0,0,0-.5.312L6.714,16.984l-6.239.928a.558.558,0,0,0-.447.378.548.548,0,0,0,.144.566L4.7,23.244,3.652,29.458a.557.557,0,0,0,.546.649.527.527,0,0,0,.259-.066l5.57-2.951,5.587,2.919a.567.567,0,0,0,.255.062h0a.557.557,0,0,0,.554-.554.433.433,0,0,0-.016-.127l-1.08-6.178,4.5-4.413A.543.543,0,0,0,19.973,18.227Zm-5.624,4.4a.548.548,0,0,0-.156.493l.94,5.39-4.852-2.533a.561.561,0,0,0-.517,0L4.928,28.535l.907-5.4a.554.554,0,0,0-.16-.488L1.751,18.839l5.414-.8a.55.55,0,0,0,.415-.3l2.405-4.914,2.438,4.9a.564.564,0,0,0,.419.3l5.418.772Z" transform="translate(2 -9.011)" fill="#919191"/>
</svg>
