<svg id="bin-icon" xmlns="http://www.w3.org/2000/svg" width="80" height="80" viewBox="0 0 80 80">
  <rect id="Rectangle_9391" data-name="Rectangle 9391" width="80" height="80" fill="none"/>
  <g id="bin" transform="translate(14 8)">
    <path id="Path_2698" data-name="Path 2698" d="M223.917,154.7a1.519,1.519,0,0,0-1.519,1.519v28.711a1.519,1.519,0,0,0,3.038,0V156.222A1.519,1.519,0,0,0,223.917,154.7Zm0,0" transform="translate(-188.614 -131.202)" fill="#ef5e5e"/>
    <path id="Path_2699" data-name="Path 2699" d="M105.917,154.7a1.519,1.519,0,0,0-1.519,1.519v28.711a1.519,1.519,0,0,0,3.038,0V156.222A1.519,1.519,0,0,0,105.917,154.7Zm0,0" transform="translate(-88.539 -131.202)" fill="#ef5e5e"/>
    <path id="Path_2700" data-name="Path 2700" d="M4.311,19.309V56.736a8.381,8.381,0,0,0,2.228,5.78,7.481,7.481,0,0,0,5.428,2.347H40.708a7.479,7.479,0,0,0,5.428-2.347,8.381,8.381,0,0,0,2.228-5.78V19.309A5.8,5.8,0,0,0,46.876,7.9H39.1V6a5.967,5.967,0,0,0-6.016-6H19.593a5.967,5.967,0,0,0-6.016,6V7.9H5.8A5.8,5.8,0,0,0,4.311,19.309Zm36.4,42.516H11.967a4.811,4.811,0,0,1-4.618-5.089V19.443H45.326V56.736a4.811,4.811,0,0,1-4.618,5.089ZM16.616,6a2.927,2.927,0,0,1,2.978-2.962H33.082A2.927,2.927,0,0,1,36.06,6V7.9H16.616ZM5.8,10.936H46.876a2.734,2.734,0,0,1,0,5.469H5.8a2.734,2.734,0,0,1,0-5.469Zm0,0" transform="translate(0.003 0.002)" fill="#ef5e5e"/>
    <path id="Path_2701" data-name="Path 2701" d="M164.917,154.7a1.519,1.519,0,0,0-1.519,1.519v28.711a1.519,1.519,0,0,0,3.038,0V156.222A1.519,1.519,0,0,0,164.917,154.7Zm0,0" transform="translate(-138.576 -131.202)" fill="#ef5e5e"/>
  </g>
</svg>
