<svg id="chat-icon" xmlns="http://www.w3.org/2000/svg" width="32" height="32" viewBox="0 0 32 32">
  <rect id="Rectangle_8473" data-name="Rectangle 8473" width="32" height="32" fill="none"/>
  <g id="interface" transform="translate(4 5)">
    <path id="Path_2573" data-name="Path 2573" d="M20.7-1.332H3.3A3.3,3.3,0,0,0,0,1.968V12.617a3.3,3.3,0,0,0,3.288,3.3v4.832l6.945-4.832H20.7a3.3,3.3,0,0,0,3.3-3.3V1.968A3.3,3.3,0,0,0,20.7-1.332Zm1.893,13.949A1.9,1.9,0,0,1,20.7,14.51H9.791l-5.1,3.547V14.51H3.3a1.9,1.9,0,0,1-1.893-1.893V1.968A1.9,1.9,0,0,1,3.3.074H20.7a1.9,1.9,0,0,1,1.893,1.893Zm0,0" transform="translate(0 1.332)" fill="#919191" stroke="#919191" stroke-width="0.2"/>
    <path id="Path_2574" data-name="Path 2574" d="M171.293,131.172h11.39v1.7h-11.39Zm0,0" transform="translate(-164.988 -126.273)" fill="#919191" stroke="#919191" stroke-width="0.2"/>
    <path id="Path_2575" data-name="Path 2575" d="M171.293,211.172h11.39v1.7h-11.39Zm0,0" transform="translate(-164.988 -203.316)" fill="#919191" stroke="#919191" stroke-width="0.2"/>
    <path id="Path_2576" data-name="Path 2576" d="M171.293,291.172h11.39v1.7h-11.39Zm0,0" transform="translate(-164.988 -280.358)" fill="#919191" stroke="#919191" stroke-width="0.2"/>
  </g>
</svg>
