<svg id="clients-icon" xmlns="http://www.w3.org/2000/svg" width="32" height="32" viewBox="0 0 32 32">
  <rect id="Rectangle_8478" data-name="Rectangle 8478" width="32" height="32" fill="none"/>
  <g id="Group_10085" data-name="Group 10085" transform="translate(-3.776 -11.5)">
    <path id="Path_2734" data-name="Path 2734" d="M13.956,30.246l.972-.727-1.039-.629a3.654,3.654,0,0,0-1.441-.5,2.879,2.879,0,1,0-3.469,0,3.628,3.628,0,0,0-2.135,1.032,3.592,3.592,0,0,0-1.069,2.568v.517A1.6,1.6,0,0,0,7.367,34.09h5.2V33.016A3.474,3.474,0,0,1,13.956,30.246Zm-3.241-5.36a1.227,1.227,0,1,1-1.243,1.227A1.236,1.236,0,0,1,10.716,24.886Zm.243,7.568H7.412v-.461A1.967,1.967,0,0,1,8,30.587,2.012,2.012,0,0,1,9.427,30h2.495A5.123,5.123,0,0,0,10.959,32.454Z" transform="translate(0 -1.625)" fill="#919191"/>
    <path id="Path_2735" data-name="Path 2735" d="M59.931,29.422A3.631,3.631,0,0,0,57.8,28.393a2.879,2.879,0,1,0-3.469,0,3.641,3.641,0,0,0-1.441.5l-1.038.629.972.727a3.477,3.477,0,0,1,1.392,2.771V34.09h5.2A1.6,1.6,0,0,0,61,32.505v-.516A3.594,3.594,0,0,0,59.931,29.422Zm-3.867-4.536a1.227,1.227,0,1,1-1.242,1.227A1.237,1.237,0,0,1,56.064,24.886Zm3.3,7.568H55.821A5.127,5.127,0,0,0,54.858,30h2.5a2.009,2.009,0,0,1,1.424.585,1.969,1.969,0,0,1,.589,1.406Z" transform="translate(-27.228 -1.625)" fill="#919191"/>
    <path id="Path_2736" data-name="Path 2736" d="M33.466,28.17H31.6a3.946,3.946,0,1,0-2.339,0H27.8a3.648,3.648,0,0,0-3.651,3.63v1.534a1.59,1.59,0,0,0,1.591,1.585h9.788a1.59,1.59,0,0,0,1.591-1.585V31.8A3.648,3.648,0,0,0,33.466,28.17Zm-5.342-3.747a2.31,2.31,0,1,1,2.31,2.287A2.3,2.3,0,0,1,28.124,24.423Zm7.356,8.86h-9.7V31.8A2.01,2.01,0,0,1,27.8,29.806h5.666A2.01,2.01,0,0,1,35.481,31.8Z" transform="translate(-10.856)" fill="#919191"/>
  </g>
</svg>
