<svg id="edit-icon" xmlns="http://www.w3.org/2000/svg" width="32" height="32" viewBox="0 0 32 32">
  <rect id="Rectangle_8980" data-name="Rectangle 8980" width="32" height="32" fill="none"/>
  <g id="edit" transform="translate(6 5.74)">
    <path id="Path_2308" data-name="Path 2308" d="M18.836,49.9a.507.507,0,0,0-.508.506v4.5A1.524,1.524,0,0,1,16.8,56.42H2.541A1.524,1.524,0,0,1,1.017,54.9V41.7a1.524,1.524,0,0,1,1.525-1.519H7.054a.506.506,0,1,0,0-1.013H2.541A2.54,2.54,0,0,0,0,41.7V54.9a2.54,2.54,0,0,0,2.541,2.532H16.8A2.54,2.54,0,0,0,19.344,54.9V50.4a.507.507,0,0,0-.508-.506Zm0,0" transform="translate(0 -36.941)" fill="#919191" stroke="#919191" stroke-width="0.5"/>
    <path id="Path_2309" data-name="Path 2309" d="M121.834.928a2.293,2.293,0,0,0-3.235,0l-9.068,9.035a.506.506,0,0,0-.13.223l-1.192,4.289a.507.507,0,0,0,.625.623l4.3-1.188a.508.508,0,0,0,.224-.13l9.068-9.035a2.276,2.276,0,0,0,0-3.223Zm-11.195,9.364L118.06,2.9l2.393,2.385-7.421,7.394Zm-.478.956,1.912,1.905-2.645.73Zm11.551-7.219-.539.537-2.394-2.385.539-.537a1.274,1.274,0,0,1,1.8,0l.6.594A1.265,1.265,0,0,1,121.712,4.029Zm0,0" transform="translate(-102.691)" fill="#919191" stroke="#919191" stroke-width="0.5"/>
  </g>
</svg>
