<svg id="filter-icon" xmlns="http://www.w3.org/2000/svg" width="32" height="32" viewBox="0 0 32 32">
  <rect id="Rectangle_9376" data-name="Rectangle 9376" width="32" height="32" fill="none"/>
  <path id="Path_2536" data-name="Path 2536" d="M20.5,4a3.1,3.1,0,0,0-2.9,2.059H4.03a1.03,1.03,0,1,0,0,2.059H17.605a3.065,3.065,0,0,0,5.791,0h3.281a1.03,1.03,0,1,0,0-2.059H23.4A3.1,3.1,0,0,0,20.5,4Zm0,2.059a1.01,1.01,0,0,1,1.017.973.565.565,0,0,0,0,.117,1.018,1.018,0,0,1-2.035,0,.565.565,0,0,0,0-.117A1.006,1.006,0,0,1,20.5,6.059Zm-8.235,6.177a3.1,3.1,0,0,0-2.9,2.059H4.03a1.03,1.03,0,1,0,0,2.059H9.37a3.065,3.065,0,0,0,5.791,0H26.677a1.03,1.03,0,1,0,0-2.059H15.161A3.1,3.1,0,0,0,12.265,12.235Zm0,2.059a1.009,1.009,0,0,1,1.017.969.6.6,0,0,0,0,.121,1.019,1.019,0,0,1-2.035,0,.6.6,0,0,0,0-.121A1.006,1.006,0,0,1,12.265,14.294Zm4.118,6.177a3.1,3.1,0,0,0-2.9,2.059H4.03a1.03,1.03,0,1,0,0,2.059h9.458a3.065,3.065,0,0,0,5.791,0h7.4a1.03,1.03,0,1,0,0-2.059h-7.4A3.1,3.1,0,0,0,16.383,20.471Zm0,2.059A1.009,1.009,0,0,1,17.4,23.5a.6.6,0,0,0,0,.121,1.019,1.019,0,0,1-2.035,0,.6.6,0,0,0,0-.121A1.006,1.006,0,0,1,16.383,22.53Zm0,0" transform="translate(1.014 1)" fill="#979797"/>
</svg>
