<svg id="filter-lifestyles-icon" xmlns="http://www.w3.org/2000/svg" width="40" height="40" viewBox="0 0 40 40">
  <rect id="Rectangle_8897" data-name="Rectangle 8897" width="40" height="40" fill="none"/>
  <g id="Group_9871" data-name="Group 9871" transform="translate(-28 -398)">
    <path id="Path_2583" data-name="Path 2583" d="M16.6,9.379l.261.15c1.379.8,2.073,1.2,2.515,1.953s.442,1.529.42,3.094v.734a6.106,6.106,0,0,1-.42,3.094c-.42.751-1.118,1.153-2.493,1.953l-.27.155-.141.084-1.958-1.145,1.1-.645.27-.155c1.065-.623,1.6-.933,1.768-1.233a5.605,5.605,0,0,0,.168-2.113v-.734a5.736,5.736,0,0,0-.168-2.117c-.168-.3-.707-.61-1.768-1.233l-.265-.155h0l-.309-.181h0a5.4,5.4,0,0,0-1.892-.91,5.445,5.445,0,0,0-1.9.91h0l-.309.181h0l-.27.159c-1.07.619-1.6.928-1.768,1.229a5.681,5.681,0,0,0-.172,2.117v.734a5.567,5.567,0,0,0,.172,2.113c.172.3.7.61,1.768,1.233l.27.155,2.21,1.286h0L18.411,23l-1.945,1.131-3.041-1.768-.491-.287-2.7-1.573-.27-.155c-1.4-.8-2.086-1.2-2.528-1.958S7,16.861,7,15.3v-.725c0-1.56,0-2.342.442-3.094S8.56,10.329,9.935,9.525l.265-.15h0l.309-.181h0C11.861,8.407,12.551,8,13.408,8s1.547.407,2.873,1.2h0l.309.181Z" transform="translate(35.094 402.535)" fill="#333"/>
    <path id="Path_2582" data-name="Path 2582" d="M14.257,2.077l.442.243c2.086,1.211,3.125,1.816,3.73,2.877S19,7.434,19,9.794v1.158c0,2.36,0,3.536-.592,4.6a7.038,7.038,0,0,1-2.8,2.333h0l-1.94-1.131.049-.027c1.768-1.034,2.652-1.547,3.01-2.157s.345-1.618.34-3.624V9.794c0-2.006,0-3.019-.34-3.624S15.468,5.047,13.7,4.013l-.442-.247h0l-.486-.283c-1.724-1.012-2.607-1.52-3.27-1.52s-1.547.5-3.279,1.516h0l-.477.287h0L5.3,4.013C3.536,5.047,2.652,5.56,2.3,6.187S1.953,7.8,1.953,9.811v1.158c0,2.006,0,3.019.345,3.624S3.536,15.7,5.3,16.732l.442.247.884.513,2.886,1.684,1.927,1.153-1.6.933h0l-.345.2-.491-.287-4.26-2.484-.442-.247C2.241,17.236,1.2,16.608.6,15.548s-.6-2.236-.6-4.6V9.794c0-2.36,0-3.536.6-4.6S2.241,3.536,4.327,2.32l.442-.243h0l.486-.283h0C7.279.6,8.3,0,9.5,0s2.21.6,4.269,1.79l.486.283Z" transform="translate(39 407)" fill="#0092dd"/>
  </g>
</svg>
