<svg id="filter-country-icon" xmlns="http://www.w3.org/2000/svg" width="40" height="40" viewBox="0 0 40 40">
  <rect id="Rectangle_8899" data-name="Rectangle 8899" width="40" height="40" fill="none"/>
  <g id="world-location" transform="translate(10.59 10)">
    <g id="Group_8912" data-name="Group 8912" transform="translate(0.41)">
      <path id="Path_2614" data-name="Path 2614" d="M5.516,9.791S8.98,6.343,8.98,3.465a3.464,3.464,0,1,0-6.928,0C2.052,6.506,5.516,9.791,5.516,9.791ZM3.711,3.465a1.805,1.805,0,1,1,1.805,1.8A1.805,1.805,0,0,1,3.711,3.465Z" transform="translate(-1.045)" fill="#0092dd"/>
      <path id="Path_2615" data-name="Path 2615" d="M23.04,6.2l-.281.089-1.5.134L20.83,7.1,20.522,7l-1.2-1.079-.175-.561-.231-.6-.753-.676-.886-.173-.021.406.869.848.425.5-.479.25-.39-.115L17.1,5.565l.02-.471-.766-.315L16.1,5.884l-.771.175.077.617,1,.194.174-.986.829.123.386.226h.62l.423.848,1.124,1.14-.082.443-.906-.116-1.565.79L16.286,10.69l-.147.6h-.405l-.753-.347-.732.347.182.773.319-.369.56-.017-.039.694.464.135.463.521.756-.213.864.136,1,.27.5.058.848.964,1.64.965-1.06,2.027-1.119.52-.425,1.158-1.62,1.082-.173.625A9.432,9.432,0,0,0,23.04,6.2Z" transform="translate(-5.766 -1.516)" fill="#0092dd"/>
      <path id="Path_2616" data-name="Path 2616" d="M10.931,18.573,10.244,17.3l.63-1.315-.63-.191-.709-.71-1.569-.351-.521-1.091v.648h-.23l-1-1.35c-.486.582-.855.953-.9,1l-.427.425-.437-.415A15.008,15.008,0,0,1,1.342,9.577a9.418,9.418,0,0,0,8.5,13.5A9.684,9.684,0,0,0,11.03,23l-.1-1.143s.433-1.7.433-1.755S10.931,18.573,10.931,18.573Z" transform="translate(-0.41 -3.706)" fill="#0092dd"/>
      <path id="Path_2617" data-name="Path 2617" d="M13.822,2.625l.695.115L16.2,2.582l.463-.511.655-.438.927.14.338-.051a9.287,9.287,0,0,0-5.973-.7,4.075,4.075,0,0,1,.994,1.939Zm1.144-.874.964-.53.619.357-.9.682-.855.086L14.413,2.1Z" transform="translate(-5.132 -0.315)" fill="#0092dd"/>
    </g>
  </g>
</svg>
