<svg id="hidden-icon" xmlns="http://www.w3.org/2000/svg" width="32" height="32" viewBox="0 0 32 32">
  <rect id="Rectangle_8977" data-name="Rectangle 8977" width="32" height="32" fill="none"/>
  <g id="Group_8485" data-name="Group 8485" transform="translate(5.667 8.333)">
    <path id="Subtraction_154" data-name="Subtraction 154" d="M12.692,17.038h0l-1.474-2.56A10.43,10.43,0,0,1,10,14.548c-3.685,0-7.181-1.955-9.844-5.505a.8.8,0,0,1,0-.947A14.468,14.468,0,0,1,5.076,3.813L3.45.989,5.157,0l.555.963L5.668.989l8.687,15.086-1.663.963ZM6.485,6.259h0A4.216,4.216,0,0,0,10,12.789c.079,0,.16,0,.239-.007L8.984,10.6a2.266,2.266,0,0,1-1.243-2.16L6.485,6.259Zm8.537,7.021h0l-1.441-2.5A4.213,4.213,0,0,0,10,4.354l-.114,0L8.9,2.653A10.438,10.438,0,0,1,10,2.595c3.685,0,7.181,1.955,9.844,5.5a.8.8,0,0,1,0,.948,14.535,14.535,0,0,1-4.821,4.232ZM12.265,8.492,11.2,6.639a2.26,2.26,0,0,1,1.069,1.853Z" transform="translate(0.334 -0.333)" fill="#919191"/>
  </g>
</svg>
