<svg id="home-icon-gray" xmlns="http://www.w3.org/2000/svg" width="32" height="32" viewBox="0 0 32 32">
  <rect id="Rectangle_8474" data-name="Rectangle 8474" width="32" height="32" fill="none"/>
  <g id="Group_10082" data-name="Group 10082" transform="translate(-56 -51)">
    <path id="Path_2732" data-name="Path 2732" d="M18.6,2.709l.576.317C21.895,4.606,23.25,5.4,24.04,6.779s.749,2.917.749,6v1.51c0,3.078,0,4.612-.772,6-.663,1.153-1.729,1.9-3.655,3.044h0l-2.531-1.476.063-.035C20.2,20.465,21.353,19.8,21.82,19s.45-2.11.444-4.727v-1.5c0-2.617,0-3.937-.444-4.727s-1.643-1.464-3.949-2.813l-.576-.323h0l-.634-.369c-2.248-1.32-3.4-1.983-4.266-1.983s-2.018.657-4.278,1.977h0l-.623.375h0l-.576.323C4.612,6.583,3.459,7.252,3,8.071s-.45,2.11-.45,4.727v1.51c0,2.617,0,3.937.45,4.727s1.614,1.441,3.92,2.79l.576.323,1.153.669,3.764,2.2,2.513,1.5-2.081,1.216h0l-.45.265-.64-.375L6.2,24.385l-.576-.323c-2.7-1.58-4.053-2.4-4.842-3.782S0,17.364,0,14.285v-1.51c0-3.078,0-4.612.778-6S2.923,4.612,5.644,3.027l.576-.317h0l.634-.369h0C9.495.778,10.826,0,12.394,0s2.882.778,5.569,2.335L18.6,2.7Z" transform="translate(60 53)" fill="#919191"/>
    <path id="Path_2733" data-name="Path 2733" d="M19.521,9.8l.34.2c1.8,1.043,2.7,1.568,3.28,2.548s.576,1.995.548,4.035v.957c0,2.029,0,3.055-.548,4.035s-1.459,1.5-3.251,2.548l-.352.2-.184.11L16.8,22.937l1.441-.842.352-.2c1.389-.813,2.087-1.216,2.306-1.608a7.312,7.312,0,0,0,.219-2.756v-.957a7.482,7.482,0,0,0-.219-2.761c-.219-.4-.922-.8-2.306-1.608l-.346-.2h0l-.4-.236h0a7.049,7.049,0,0,0-2.467-1.188A7.1,7.1,0,0,0,12.9,11.764h0L12.5,12h0l-.352.208c-1.4.807-2.087,1.211-2.306,1.6a7.411,7.411,0,0,0-.225,2.761v.957a7.261,7.261,0,0,0,.225,2.756c.225.392.917.8,2.306,1.608l.352.2,2.882,1.678h0l6.5,3.793-2.537,1.476-3.966-2.306-.64-.375-3.517-2.052-.352-.2c-1.822-1.049-2.721-1.568-3.3-2.554S7,19.559,7,17.518v-.945c0-2.035,0-3.055.576-4.035s1.459-1.5,3.251-2.548l.346-.2h0l.4-.236h0C13.341,8.53,14.241,8,15.359,8s2.018.53,3.747,1.562h0l.4.236Z" transform="translate(57.035 49.612)" fill="#919191"/>
  </g>
</svg>
