<svg id="kyc-id-icon" xmlns="http://www.w3.org/2000/svg" width="40" height="40" viewBox="0 0 40 40">
  <rect id="Rectangle_8444" data-name="Rectangle 8444" width="40" height="40" fill="none"/>
  <g id="id" transform="translate(6 8)">
    <path id="Path_2553" data-name="Path 2553" d="M25.308,64.105H3.275A3.278,3.278,0,0,1,0,60.83V45.943a3.278,3.278,0,0,1,3.275-3.275h7.146a.893.893,0,1,1,0,1.786H3.275a1.491,1.491,0,0,0-1.489,1.489V60.83a1.491,1.491,0,0,0,1.489,1.489H25.308A1.491,1.491,0,0,0,26.8,60.83V45.943a1.491,1.491,0,0,0-1.489-1.489H18.162a.893.893,0,1,1,0-1.786h7.146a3.278,3.278,0,0,1,3.275,3.275V60.83A3.278,3.278,0,0,1,25.308,64.105Zm0,0" transform="translate(0 -40.286)" fill="#b5b5b5"/>
    <path id="Path_2554" data-name="Path 2554" d="M178.111,6.55h-5.359a2.086,2.086,0,0,1-2.084-2.084V2.084A2.086,2.086,0,0,1,172.752,0h5.359A2.086,2.086,0,0,1,180.2,2.084V4.466A2.086,2.086,0,0,1,178.111,6.55Zm-5.359-4.764a.3.3,0,0,0-.3.3V4.466a.3.3,0,0,0,.3.3h5.359a.3.3,0,0,0,.3-.3V2.084a.3.3,0,0,0-.3-.3Zm0,0" transform="translate(-161.14)" fill="#b5b5b5"/>
    <path id="Path_2555" data-name="Path 2555" d="M109.645,155.287a2.977,2.977,0,1,1,2.977-2.977A2.981,2.981,0,0,1,109.645,155.287Zm0-4.168a1.191,1.191,0,1,0,1.191,1.191A1.193,1.193,0,0,0,109.645,151.119Zm0,0" transform="translate(-100.713 -140.996)" fill="#b5b5b5"/>
    <path id="Path_2556" data-name="Path 2556" d="M73.825,282.1a.894.894,0,0,1-.893-.893v-.6a1.491,1.491,0,0,0-1.489-1.489H67.275a1.491,1.491,0,0,0-1.489,1.489v.6a.893.893,0,1,1-1.786,0v-.6a3.278,3.278,0,0,1,3.275-3.275h4.168a3.278,3.278,0,0,1,3.275,3.275v.6A.894.894,0,0,1,73.825,282.1Zm0,0" transform="translate(-60.427 -261.85)" fill="#b5b5b5"/>
    <path id="Path_2557" data-name="Path 2557" d="M306.111,161.786h-6.55a.893.893,0,0,1,0-1.786h6.55a.893.893,0,1,1,0,1.786Zm0,0" transform="translate(-281.995 -151.068)" fill="#b5b5b5"/>
    <path id="Path_2558" data-name="Path 2558" d="M306.111,247.118h-6.55a.893.893,0,0,1,0-1.786h6.55a.893.893,0,0,1,0,1.786Zm0,0" transform="translate(-281.995 -231.636)" fill="#b5b5b5"/>
    <path id="Path_2559" data-name="Path 2559" d="M306.111,332.454h-6.55a.893.893,0,0,1,0-1.786h6.55a.893.893,0,1,1,0,1.786Zm0,0" transform="translate(-281.995 -312.208)" fill="#b5b5b5"/>
  </g>
</svg>
