<svg id="kyc-selfie-icon" xmlns="http://www.w3.org/2000/svg" width="40" height="40" viewBox="0 0 40 40">
  <rect id="Rectangle_8446" data-name="Rectangle 8446" width="40" height="40" fill="none"/>
  <g id="selfie" transform="translate(10 4)">
    <path id="Path_2549" data-name="Path 2549" d="M81.45,107.162a5.251,5.251,0,1,1,5.251-5.251A5.257,5.257,0,0,1,81.45,107.162Zm0-9.252a4,4,0,1,0,4,4A4.005,4.005,0,0,0,81.45,97.91Zm0,0" transform="translate(-71.437 -90.619)" fill="#b5b5b5" stroke="#b5b5b5" stroke-width="0.4"/>
    <g id="Group_9436" data-name="Group 9436">
      <path id="Path_2550" data-name="Path 2550" d="M17.791,0H2.235A2.238,2.238,0,0,0,0,2.235V29.764A2.238,2.238,0,0,0,2.235,32H17.791a2.238,2.238,0,0,0,2.235-2.235V2.235A2.238,2.238,0,0,0,17.791,0Zm.985,29.764a.986.986,0,0,1-.985.985H2.235a.986.986,0,0,1-.986-.985v-2.5H18.776ZM6.866,19.044l2.7,2.7a.625.625,0,0,0,.884,0l2.7-2.7h.921a1.291,1.291,0,0,1,1.289,1.289v5.677H4.656V20.333a1.291,1.291,0,0,1,1.289-1.289Zm1.768,0h2.757l-1.378,1.378ZM18.776,3.125H16.961a.625.625,0,1,0,0,1.25h1.815V26.011H16.619V20.333a2.542,2.542,0,0,0-2.539-2.539H5.945a2.542,2.542,0,0,0-2.539,2.539v5.677H1.25V4.375H11.308a.625.625,0,0,0,0-1.25H1.25v-.89a.986.986,0,0,1,.986-.985H17.791a.986.986,0,0,1,.985.985Zm0,0" fill="#b5b5b5" stroke="#b5b5b5" stroke-width="0.4"/>
    </g>
    <path id="Path_2551" data-name="Path 2551" d="M135.336,459.422h-2.215a.625.625,0,1,1,0-1.25h2.215a.625.625,0,1,1,0,1.25Zm0,0" transform="translate(-124.216 -429.537)" fill="#b5b5b5" stroke="#b5b5b5" stroke-width="0.4"/>
    <path id="Path_2552" data-name="Path 2552" d="M216.616,51.276a.625.625,0,1,1,.615-.515A.629.629,0,0,1,216.616,51.276Zm0,0" transform="translate(-202.493 -46.901)" fill="#b5b5b5" stroke="#b5b5b5" stroke-width="0.4"/>
  </g>
</svg>
