<svg id="map-icon" xmlns="http://www.w3.org/2000/svg" width="32" height="32" viewBox="0 0 32 32">
  <rect id="Rectangle_8481" data-name="Rectangle 8481" width="32" height="32" fill="#fff"/>
  <path id="map_2_" data-name="map (2)" d="M19.264,2.066a.351.351,0,0,0-.318-.048L12.689,4.1l-5.9-1.389a.307.307,0,0,0-.044,0,.359.359,0,0,0-.113,0L.276,4.126A.353.353,0,0,0,0,4.471V19.647A.353.353,0,0,0,.353,20a.377.377,0,0,0,.077-.008l6.285-1.4,5.93,1.046a.329.329,0,0,0,.061.006.354.354,0,0,0,.124-.023h0l6.353-2.471a.354.354,0,0,0,.225-.329V2.353A.353.353,0,0,0,19.264,2.066ZM.706,4.753,6.353,3.5V17.951L.706,19.206ZM7.059,3.5,12.353,4.75V18.873l-5.294-.934ZM18.705,16.582l-5.647,2.2V4.725l5.647-1.882Z" transform="translate(6.5 5.5)" fill="#0092dc" stroke="#0092dc" stroke-width="1"/>
</svg>
