<svg id="more-info-parking-icon" xmlns="http://www.w3.org/2000/svg" width="24" height="24" viewBox="0 0 24 24">
  <rect id="Rectangle_9386" data-name="Rectangle 9386" width="24" height="24" fill="none"/>
  <g id="parked-car" transform="translate(2 -32.486)">
    <path id="Path_2634" data-name="Path 2634" d="M14.183,84.909a.743.743,0,0,0-.2.027l-.747.206-.775-1.888a1.692,1.692,0,0,0-1.447-.97H3.764a1.691,1.691,0,0,0-1.447.97L1.543,85.14l-.737-.2a.742.742,0,0,0-.2-.027A.6.6,0,0,0,0,85.55v.44a.787.787,0,0,0,.786.786H.871l-.125.3a5.9,5.9,0,0,0-.37,1.876v3.751a.787.787,0,0,0,.786.786H2.188a.787.787,0,0,0,.786-.786v-.937h8.833v.937a.787.787,0,0,0,.786.786H13.62a.787.787,0,0,0,.786-.786V88.957a5.9,5.9,0,0,0-.37-1.876l-.125-.3h.095a.787.787,0,0,0,.786-.786v-.44A.6.6,0,0,0,14.183,84.909ZM2.106,86.349l1.173-2.856a1.017,1.017,0,0,1,.868-.582h6.489a1.016,1.016,0,0,1,.868.582l1.173,2.856a.392.392,0,0,1-.39.582H2.5A.392.392,0,0,1,2.106,86.349Zm2.618,3.613a.315.315,0,0,1-.314.314H2.182a.315.315,0,0,1-.314-.314V88.893a.315.315,0,0,1,.314-.314H4.409a.315.315,0,0,1,.314.314Zm8.17,0a.315.315,0,0,1-.314.314H10.351a.315.315,0,0,1-.314-.314V88.893a.315.315,0,0,1,.314-.314h2.227a.315.315,0,0,1,.314.314Z" transform="translate(0 -41.51)" fill="#919191"/>
    <g id="Group_8965" data-name="Group 8965" transform="translate(14.31 37.486)">
      <path id="Path_2635" data-name="Path 2635" d="M199.7,37.486h-3.723a.984.984,0,0,0-.983.983v3.723a.984.984,0,0,0,.983.983h1.495v8.357a.367.367,0,0,0,.734,0V43.176H199.7a.984.984,0,0,0,.983-.983V38.469A.984.984,0,0,0,199.7,37.486Zm-.843,3.087a1.363,1.363,0,0,1-.937.291h-.539a.118.118,0,0,0-.117.117v.909a.179.179,0,0,1-.179.179h-.408a.179.179,0,0,1-.179-.179V38.772a.179.179,0,0,1,.179-.179H197.7a1.574,1.574,0,0,1,1.145.28,1.059,1.059,0,0,1,.332.852A1.089,1.089,0,0,1,198.855,40.573Z" transform="translate(-194.992 -37.486)" fill="#919191"/>
      <path id="Path_2636" data-name="Path 2636" d="M226.923,61.394a.9.9,0,0,0-.523-.113h-.37a.118.118,0,0,0-.117.117v.747a.118.118,0,0,0,.117.117h.222c.081,0,.213-.006.293-.013a1,1,0,0,0,.378-.1.562.562,0,0,0,0-.755Z" transform="translate(-223.644 -59.535)" fill="#919191"/>
    </g>
  </g>
</svg>
