<svg id="more-info-kids-icon" xmlns="http://www.w3.org/2000/svg" width="24" height="24" viewBox="0 0 24 24">
  <rect id="Rectangle_9387" data-name="Rectangle 9387" width="24" height="24" fill="none"/>
  <g id="kids-couple" transform="translate(3 2.24)">
    <g id="Group_8966" data-name="Group 8966" transform="translate(0 1.761)">
      <path id="Path_2637" data-name="Path 2637" d="M5.522,7.613A2.361,2.361,0,0,0,7.883,5.249c0-.814.287-1.56-.343-1.983a8.054,8.054,0,0,0-2.523-.379,3.28,3.28,0,0,0-1.751.824c-.512.432-.108.813-.108,1.536A2.361,2.361,0,0,0,5.522,7.613ZM3.876,5.018a1.271,1.271,0,0,1,.729.064l.725-.353s-.369.533-.038.353A4.1,4.1,0,0,1,7.276,5.02,1.788,1.788,0,0,1,7.3,5.3a1.729,1.729,0,1,1-3.428-.287Z" transform="translate(-0.792 -2.057)" fill="#919191"/>
      <path id="Path_2638" data-name="Path 2638" d="M19.479,4.621a2.848,2.848,0,0,0-.052-.4,2.8,2.8,0,0,0-2.962-2.461,2.273,2.273,0,0,0-2.33,2.263,2.715,2.715,0,0,0-.121.647c-2.384.416-2.122,2.836-.666,2.877a2.793,2.793,0,0,1,.7-2.266,2.74,2.74,0,0,0,5.372.2,3.62,3.62,0,0,1,.507,2.065C22.217,7.53,21.089,4.908,19.479,4.621ZM16.751,6.812a1.975,1.975,0,0,1-1.969-1.931c.391-.142.681-.82.681-.82s.232.08.232.845c.406.141,1.111-1.189,1.111-1.189V4.765a8.471,8.471,0,0,0,1.857-.04l.052.044c0,.022.007.045.007.068A1.973,1.973,0,0,1,16.751,6.812Z" transform="translate(-3.222 -1.761)" fill="#919191"/>
      <path id="Path_2639" data-name="Path 2639" d="M14.1,9.769H11.974L9.137,13.187,6.391,9.812H3.27L0,13.4l.685.707,2.341-2v3.874H3.5v2.945H3.2v.346H4.556v-3.29h.509v3.29H6.421v-.346h-.3V15.984h.57v-3.8L8.565,14.1l.765-.189.424.106,2.12-2.426.121.961-1.969,3.383H12.3v2.946H12v.343h1.358v-.343h0V15.941h.508v3.288h1.359v-.343h-.3V15.941h1.76L14.95,12.558l.1-1.183L16.7,13.595l1.1-.273L15.173,9.769Z" transform="translate(0 -3.869)" fill="#919191"/>
    </g>
  </g>
</svg>
