<svg id="more-info-payment-icon" xmlns="http://www.w3.org/2000/svg" width="24" height="24" viewBox="0 0 24 24">
  <rect id="Rectangle_9385" data-name="Rectangle 9385" width="24" height="24" fill="none"/>
  <g id="payment-method_1_" data-name="payment-method (1)" transform="translate(3 2.977)">
    <g id="Group_8958" data-name="Group 8958" transform="translate(5.37 13.517)">
      <g id="Group_8957" data-name="Group 8957">
        <path id="Path_2630" data-name="Path 2630" d="M153.446,384.14a.368.368,0,0,0-.02-.066.356.356,0,0,0-.032-.06.341.341,0,0,0-.1-.1.347.347,0,0,0-.061-.032.329.329,0,0,0-.066-.02.346.346,0,0,0-.137,0,.34.34,0,0,0-.066.02.356.356,0,0,0-.06.032.351.351,0,0,0-.129.157.342.342,0,0,0-.02.066.338.338,0,0,0,0,.137.33.33,0,0,0,.02.066.326.326,0,0,0,.032.061.342.342,0,0,0,.1.1.356.356,0,0,0,.06.032.34.34,0,0,0,.066.02.337.337,0,0,0,.137,0,.329.329,0,0,0,.066-.02.349.349,0,0,0,.061-.032.342.342,0,0,0,.1-.1.347.347,0,0,0,.032-.061.355.355,0,0,0,.02-.066.338.338,0,0,0,0-.137Z" transform="translate(-152.75 -383.857)" fill="#919191" stroke="#919191" stroke-width="0.3"/>
      </g>
    </g>
    <g id="Group_8960" data-name="Group 8960" transform="translate(0 10.918)">
      <g id="Group_8959" data-name="Group 8959">
        <path id="Path_2631" data-name="Path 2631" d="M16.172,312.912l0-.01a1.462,1.462,0,0,0-1.981-.73l-2.449.677a1.606,1.606,0,0,0-.994-.979l-.009,0-2.692-.914a2.777,2.777,0,0,0-2.24-1.031,2.811,2.811,0,0,0-2.2,1.317H.352A.352.352,0,0,0,0,311.59v4.432a.352.352,0,0,0,.352.352h2.09a.352.352,0,0,0,.352-.352v-.3h.98a.352.352,0,0,0,.352-.352v-.1a2.492,2.492,0,0,1,1.284.461,21.28,21.28,0,0,0,2.112,1.078l.015.007a3.156,3.156,0,0,0,1.131.213,2.8,2.8,0,0,0,1.165-.249l5.414-1.938.028-.012A1.5,1.5,0,0,0,16.172,312.912ZM2.09,315.671H.7v-3.729H2.09Zm1.332-.655H2.793v-3.074h.629Zm11.572-.835-5.411,1.938-.016.006-.014.006a2.279,2.279,0,0,1-1.751.03,20.381,20.381,0,0,1-2.041-1.043,3.164,3.164,0,0,0-1.635-.556V311.73A2.171,2.171,0,0,1,5.8,310.625a2.029,2.029,0,0,1,1.721.808.352.352,0,0,0,.187.149l2.794.948a.789.789,0,0,1,.574.931.685.685,0,0,1-.842.473l-3.15-1a.352.352,0,1,0-.212.67l3.155,1,.01,0a1.38,1.38,0,0,0,1.055-.123,1.379,1.379,0,0,0,.659-.833q.012-.043.021-.085l2.64-.731c.381-.13.882-.177,1.1.336C15.749,313.776,15.15,314.107,14.994,314.181Z" transform="translate(0 -309.922)" fill="#919191" stroke="#919191" stroke-width="0.3"/>
      </g>
    </g>
    <g id="Group_8962" data-name="Group 8962" transform="translate(11.927 4.364)">
      <g id="Group_8961" data-name="Group 8961">
        <path id="Path_2632" data-name="Path 2632" d="M339.946,123.781a.344.344,0,0,0-.02-.066.346.346,0,0,0-.129-.158.355.355,0,0,0-.06-.032.35.35,0,0,0-.2-.02.33.33,0,0,0-.066.02.345.345,0,0,0-.061.032.341.341,0,0,0-.1.1.356.356,0,0,0-.032.06.34.34,0,0,0-.02.066.337.337,0,0,0,0,.137.33.33,0,0,0,.02.066.347.347,0,0,0,.032.061.341.341,0,0,0,.1.1.345.345,0,0,0,.061.032.356.356,0,0,0,.066.02.346.346,0,0,0,.069.007.353.353,0,0,0,.069-.007.374.374,0,0,0,.066-.02.355.355,0,0,0,.06-.032.34.34,0,0,0,.1-.1.326.326,0,0,0,.032-.061.333.333,0,0,0,.02-.066.356.356,0,0,0,0-.137Z" transform="translate(-339.25 -123.498)" fill="#919191" stroke="#919191" stroke-width="0.3"/>
      </g>
    </g>
    <g id="Group_8964" data-name="Group 8964" transform="translate(1.044 0.023)">
      <g id="Group_8963" data-name="Group 8963">
        <path id="Path_2633" data-name="Path 2633" d="M46.3,1.214h-2.09a.352.352,0,0,0-.352.352v.3h-.98a.352.352,0,0,0-.352.352v.1a2.493,2.493,0,0,1-1.284-.461A21.274,21.274,0,0,0,39.125.783L39.11.776a2.991,2.991,0,0,0-2.3.036L35.4,1.319,34.207.126a.352.352,0,0,0-.5,0L29.8,4.041a.349.349,0,0,0,0,.5l6.69,6.69a.38.38,0,0,0,.5,0l3.574-3.574c.093.008.189.012.289.012a2.811,2.811,0,0,0,2.2-1.317H46.3A.352.352,0,0,0,46.647,6V1.565A.352.352,0,0,0,46.3,1.214ZM33.958.872l.8.8a1.533,1.533,0,0,1-1.6,0ZM31.342,5.091l-.8-.8.8-.8a1.533,1.533,0,0,1,0,1.6Zm5.391,5.391-.8-.8a1.531,1.531,0,0,1,1.6,0Zm1.308-1.308a2.234,2.234,0,0,0-2.615,0L31.849,5.6a2.234,2.234,0,0,0,0-2.616l.8-.8a2.234,2.234,0,0,0,2.616,0l.76.76a1.393,1.393,0,0,0-1.046.767,2,2,0,1,0,2.3,2.48l1.187.4a2.245,2.245,0,0,0,.372,1.782ZM35.9,5.718l.009,0,.7.239A1.3,1.3,0,1,1,34.85,4.474,1.556,1.556,0,0,0,35.9,5.718ZM39.35,7.865a1.538,1.538,0,0,1-.225-.731,2.734,2.734,0,0,0,.62.336Zm3.171-2.007a2.171,2.171,0,0,1-1.676,1.105,2.559,2.559,0,0,1-.367-.026h0a2.014,2.014,0,0,1-1.3-.713l-.042-.057a.35.35,0,0,0-.194-.161l-2.8-.949a.789.789,0,0,1-.574-.93h0a.685.685,0,0,1,.841-.472l3.15,1a.352.352,0,1,0,.212-.67l-2.505-.794-.022-.022h0l-1.3-1.3,1.115-.4.012,0h0l.014-.006a2.278,2.278,0,0,1,1.751-.03A20.365,20.365,0,0,1,40.886,2.47a3.164,3.164,0,0,0,1.635.556Zm1.332-.211h-.629V2.572h.629Zm2.09,0H44.557V1.917h1.387Z" transform="translate(-29.691 -0.023)" fill="#919191" stroke="#919191" stroke-width="0.3"/>
      </g>
    </g>
  </g>
</svg>
