<svg id="settings-rate-us-icon" xmlns="http://www.w3.org/2000/svg" width="32" height="32" viewBox="0 0 32 32">
  <g id="Group_9404" data-name="Group 9404" transform="translate(-16 -236)">
    <rect id="Rectangle_8439" data-name="Rectangle 8439" width="32" height="32" transform="translate(16 236)" fill="none"/>
  </g>
  <path id="star" d="M25,12.145a1.833,1.833,0,0,0-1.016-3.127l-6.189-.9a.808.808,0,0,1-.609-.443L14.424,2.069a1.833,1.833,0,0,0-3.287,0L8.369,7.676a.809.809,0,0,1-.61.443l-6.189.9A1.833,1.833,0,0,0,.555,12.145l4.478,4.365a.81.81,0,0,1,.233.717L4.209,23.389a1.833,1.833,0,0,0,2.659,1.932l5.535-2.91a.81.81,0,0,1,.753,0l5.535,2.91a1.833,1.833,0,0,0,2.659-1.932l-1.057-6.163a.81.81,0,0,1,.233-.717ZM19.285,17.4l1.057,6.163a.809.809,0,0,1-1.174.854l-5.535-2.911a1.833,1.833,0,0,0-1.706,0l-5.534,2.91a.81.81,0,0,1-1.175-.854L6.275,17.4a1.833,1.833,0,0,0-.527-1.622L1.269,11.412a.81.81,0,0,1,.448-1.381l6.188-.9a1.83,1.83,0,0,0,1.38-1l2.767-5.608a.81.81,0,0,1,1.452,0l2.767,5.608a1.83,1.83,0,0,0,1.38,1l6.189.9a.81.81,0,0,1,.448,1.381l-4.478,4.365A1.832,1.832,0,0,0,19.285,17.4Z" transform="translate(3.5 2.453)" fill="#b5b5b5" stroke="#b5b5b5" stroke-width="0.5"/>
</svg>
