<svg id="settings-notification-icon" xmlns="http://www.w3.org/2000/svg" width="32" height="32" viewBox="0 0 32 32">
  <rect id="Rectangle_8429" data-name="Rectangle 8429" width="32" height="32" fill="none"/>
  <g id="Group_49" data-name="Group 49" transform="translate(6 4)">
    <path id="notification_1_" data-name="notification (1)" d="M19.2,17.747l-2.171-2.531V10.306c0-.237-.012-.476-.035-.711a6.558,6.558,0,0,0-5.049-6.239V2.21a2.209,2.209,0,1,0-4.419,0V3.355a7.306,7.306,0,0,0-5.084,6.95v4.911L.632,17.23a2.209,2.209,0,0,0,1.576,3.757H6.091a3.715,3.715,0,0,0,7.3,0h3.883c3.148,0,2.342-2.824,1.933-3.24ZM8.936,2.21a.8.8,0,1,1,1.606,0v.847a7.3,7.3,0,0,0-1.606,0Zm.8,20.384a2.314,2.314,0,0,1-2.2-1.606h4.4A2.314,2.314,0,0,1,9.739,22.594Zm7.531-3.013H2.208A.8.8,0,0,1,1.64,18.21l.025-.027,2.007-2.226a.7.7,0,0,0,.181-.471V10.306A5.893,5.893,0,0,1,9.715,4.419c4.218.085,5.912,3.378,5.912,6.437v4.63a.7.7,0,0,0,.181.471l2.006,2.226.025.027a.8.8,0,0,1-.567,1.371Zm0,0" transform="translate(0 0)" fill="#b5b5b5"/>
  </g>
</svg>
