<svg id="settings-privacy-icon" xmlns="http://www.w3.org/2000/svg" width="32" height="32" viewBox="0 0 32 32">
  <g id="Group_9421" data-name="Group 9421" transform="translate(-16 -308)">
    <g id="Group_9404" data-name="Group 9404" transform="translate(0 72)">
      <rect id="Rectangle_8439" data-name="Rectangle 8439" width="32" height="32" transform="translate(16 236)" fill="none"/>
    </g>
  </g>
  <g id="privacy" transform="translate(5.5 4)">
    <path id="Path_2431" data-name="Path 2431" d="M19.2,10.246a2.37,2.37,0,0,0-2.227-.412,2.048,2.048,0,0,0-.544.285,14.949,14.949,0,0,0-2.083,2.146V5.217a2.267,2.267,0,0,0-.676-1.607,2.179,2.179,0,0,0-2.332-.484V2.438A2.468,2.468,0,0,0,10.6.689,2.363,2.363,0,0,0,8.889,0,2.416,2.416,0,0,0,6.528,2.332a2.317,2.317,0,0,0-.889-.205,2.447,2.447,0,0,0-1.765.69,2.31,2.31,0,0,0-.716,1.665l0,.668A2.023,2.023,0,0,0,.5,7.07V17.316l0,.049a9.082,9.082,0,0,0,.837,3.422,5.325,5.325,0,0,0,1.8,2.078A8.491,8.491,0,0,0,7.913,24a7.533,7.533,0,0,0,6.645-3.671c.155-.249.562-.891,1-1.582.429-.674.828-1.295,1.18-1.843l.522-.814c.569-.89,1.175-1.752,1.8-2.564.233-.3.3-.383.32-.4a2.081,2.081,0,0,0,.535-1.134A1.9,1.9,0,0,0,19.2,10.246ZM18.524,11.8a.682.682,0,0,1-.177.369c-.051.056-.142.162-.4.491-.652.844-1.283,1.741-1.874,2.666l-.521.811c-.352.549-.752,1.171-1.182,1.847-.451.708-.868,1.364-1.02,1.61l-.016.027a6.125,6.125,0,0,1-5.423,2.964A7.235,7.235,0,0,1,3.922,21.7c-1.2-.808-1.86-2.249-2.013-4.405V7.071a.616.616,0,0,1,1.233,0V10.9c0,.011,0,.022,0,.034s0,.025,0,.038,0,.022,0,.033,0,.025.005.037.006.022.008.033.005.023.009.035.008.022.012.032.007.022.012.032.01.021.015.031l.015.031c.005.01.012.019.018.029l.018.029.02.027c.007.009.013.018.02.027l.022.025.023.025.024.022.026.023.026.02.028.021.028.017.03.019.029.014.032.016.031.012.034.012.033.009.034.009.035.005.035.005.036,0,.035,0h0a.717.717,0,0,0,.072,0l.031,0,.039-.006.04-.01.028-.007.043-.016.021-.008.042-.02.02-.01.037-.023.021-.013.033-.025.021-.016c.01-.008.019-.017.029-.026l.021-.019.025-.027.021-.023.021-.028c.007-.009.014-.017.02-.026s.012-.019.018-.029l.018-.029c.005-.01.01-.02.015-.03s.01-.021.015-.031.008-.021.012-.031.009-.022.012-.033.006-.022.008-.033.006-.023.009-.035,0-.023.005-.034,0-.024.005-.036,0-.023,0-.035,0-.024,0-.036l.016-6.423a.915.915,0,0,1,.289-.657A1.03,1.03,0,0,1,5.6,3.534a.976.976,0,0,1,.921.986l.008,6.348c0,.013,0,.025,0,.038s0,.023,0,.034,0,.026.006.039,0,.021,0,.031.007.027.011.041,0,.018.007.026.01.029.016.043,0,.014.008.021.014.03.022.045l.008.017c.008.015.018.03.027.044l.009.014c.01.014.02.028.031.042l.01.013c.012.014.025.028.038.041l.008.009c.013.013.028.026.042.038l.008.007c.014.012.029.023.045.033l.01.007c.015.01.031.02.048.029l.01.006.052.025.01,0,.055.02.01,0,.056.014.011,0a.709.709,0,0,0,.142.014h0l.036,0,.035,0,.038-.006.032,0,.037-.01.03-.008.037-.014.028-.01.037-.018.024-.012.035-.021.023-.014.032-.024.022-.016.029-.027.021-.019.026-.029.019-.021.022-.029.019-.025c.007-.01.012-.02.018-.03s.012-.018.017-.028.01-.021.015-.031.01-.02.015-.031.008-.021.011-.031.009-.022.012-.034.006-.022.009-.033.006-.023.009-.034,0-.023.005-.035,0-.023.005-.035,0-.024,0-.036,0-.023,0-.036V2.4a1,1,0,0,1,.979-1,.973.973,0,0,1,.7.286,1.052,1.052,0,0,1,.315.745v8.468c0,.013,0,.025,0,.038s0,.023,0,.034,0,.025.006.037,0,.022.005.033.006.024.009.036,0,.021.008.031.009.026.014.038.006.018.01.026.012.026.019.039l.011.023c.007.013.015.025.023.038l.012.02c.008.012.018.024.027.036l.013.018c.01.013.022.024.033.036l.013.014c.012.012.024.022.036.033l.014.012c.014.012.029.022.043.032l.011.008c.016.011.032.02.049.03l.009.005c.018.01.037.019.056.027l.005,0c.02.008.04.016.061.022h0a.7.7,0,0,0,.136.028h0a.717.717,0,0,0,.072,0h0l.037,0,.034,0,.038-.006.031,0,.04-.01.027-.007.042-.015.023-.008.041-.02.02-.01.039-.024.019-.012c.013-.009.025-.019.038-.028l.016-.012.036-.032.014-.013c.011-.011.022-.023.032-.036l.013-.014c.01-.012.019-.025.028-.038l.012-.016c.009-.013.016-.026.024-.04l.011-.018c.007-.014.014-.028.02-.042s.007-.013.01-.02.011-.028.016-.042.006-.015.008-.023.007-.027.011-.041,0-.017.007-.026,0-.028.006-.041,0-.019,0-.029,0-.026,0-.039,0-.021,0-.033V5.095a.807.807,0,0,1,.783-.711.781.781,0,0,1,.562.23.851.851,0,0,1,.255.6v8.34a1,1,0,0,0,1.863.5l0-.008a13.582,13.582,0,0,1,2.458-2.792.638.638,0,0,1,.17-.088.947.947,0,0,1,.876.171A.519.519,0,0,1,18.524,11.8Zm0,0" transform="translate(0 0)" fill="#b5b5b5"/>
  </g>
</svg>
