<svg id="settings-country-icon" xmlns="http://www.w3.org/2000/svg" width="32" height="32" viewBox="0 0 32 32">
  <rect id="Rectangle_8439" data-name="Rectangle 8439" width="32" height="32" fill="none"/>
  <path id="flag" d="M25.367,1.26c-.184-.074-4.549-1.783-7.945.018-2.691,1.428-7.414.357-8.622.047V.4A.4.4,0,1,0,8,.4V1.6c0,.006,0,.01,0,.016s0,.009,0,.014V23.626a.4.4,0,0,0,.8,0v-9.46a21.623,21.623,0,0,0,4.953.654A8.776,8.776,0,0,0,17.8,14c3.064-1.626,7.23,0,7.272.018a.4.4,0,0,0,.549-.372V1.631A.4.4,0,0,0,25.367,1.26Zm-.549,11.82c-1.305-.416-4.663-1.24-7.4.21-2.691,1.428-7.412.357-8.622.047V2.152c1.543.385,6.159,1.339,9-.167,2.629-1.395,6.07-.394,7.02-.072Z" transform="translate(-1 4)" fill="#b5b5b5" stroke="#b5b5b5" stroke-width="1"/>
</svg>
