<svg id="settings-language-icon" xmlns="http://www.w3.org/2000/svg" width="32" height="32" viewBox="0 0 32 32">
  <path id="Path_3087" data-name="Path 3087" d="M0,0H32V32H0Z" fill="none"/>
  <g id="translate" transform="translate(4 4)">
    <path id="Path_1621" data-name="Path 1621" d="M318.354,301.547c-.066-.221-.339-.324-.619-.324a.6.6,0,0,0-.611.324l-1.421,4.632a.43.43,0,0,0-.015.074c0,.236.346.4.6.4.162,0,.287-.051.324-.191l.28-.98h1.687l.28.98c.037.14.162.191.324.191.258,0,.6-.169.6-.4a.326.326,0,0,0-.015-.074Zm-1.259,3.181.641-2.261.641,2.261Zm0,0" transform="translate(-301.218 -287.416)" fill="#b5b5b5"/>
    <path id="Path_1622" data-name="Path 1622" d="M20.939,9.573H13.894V6.564l2.29-1.635a.687.687,0,0,0,0-1.119L13.866,2.155A2.532,2.532,0,0,0,11.365,0H2.529A2.531,2.531,0,0,0,0,2.529v8.837a2.531,2.531,0,0,0,2.529,2.528H9.574V16.9l-2.29,1.635a.687.687,0,0,0,0,1.119L9.6,21.312a2.532,2.532,0,0,0,2.5,2.155h8.837a2.531,2.531,0,0,0,2.528-2.529V12.1a2.531,2.531,0,0,0-2.528-2.529ZM2.529,12.519a1.155,1.155,0,0,1-1.154-1.154V2.528A1.155,1.155,0,0,1,2.529,1.375h8.837a1.155,1.155,0,0,1,1.153,1.153.687.687,0,0,0,.288.56L14.6,4.369,12.807,5.651a.688.688,0,0,0-.288.56V9.573H12.1A2.531,2.531,0,0,0,9.574,12.1v.417Zm19.564,8.42a1.155,1.155,0,0,1-1.153,1.154H12.1a1.155,1.155,0,0,1-1.153-1.154.687.687,0,0,0-.288-.559L8.867,19.1l1.794-1.282a.688.688,0,0,0,.288-.56V12.1A1.155,1.155,0,0,1,12.1,10.948h8.837A1.155,1.155,0,0,1,22.092,12.1Zm0,0" transform="translate(0 0)" fill="#b5b5b5"/>
    <path id="Path_1623" data-name="Path 1623" d="M101.632,94.46a.388.388,0,0,0,0-.776H99.907v-.941a.388.388,0,1,0-.775,0v.941H97.407a.388.388,0,0,0,0,.776h.534a3.7,3.7,0,0,0,.97,2.132,2.919,2.919,0,0,1-1.5.416.388.388,0,0,0,0,.775,3.688,3.688,0,0,0,2.112-.662,3.689,3.689,0,0,0,2.113.662.388.388,0,0,0,0-.775,2.915,2.915,0,0,1-1.5-.416,3.7,3.7,0,0,0,.97-2.132Zm-2.113,1.647a2.928,2.928,0,0,1-.8-1.647h1.593A2.927,2.927,0,0,1,99.519,96.107Zm0,0" transform="translate(-92.572 -88.122)" fill="#b5b5b5"/>
  </g>
</svg>
