<svg id="status-business-icon" xmlns="http://www.w3.org/2000/svg" width="160" height="160" viewBox="0 0 160 160">
  <rect id="Rectangle_9377" data-name="Rectangle 9377" width="160" height="160" fill="none"/>
  <g id="Group_10543" data-name="Group 10543" transform="translate(-133 -225)">
    <ellipse id="Ellipse_811" data-name="Ellipse 811" cx="37.5" cy="42.5" rx="37.5" ry="42.5" transform="translate(188 281)" fill="rgba(221,153,0,0.36)"/>
    <g id="Group_9431" data-name="Group 9431" transform="translate(12 57)">
      <g id="Page-1" transform="translate(152 224.008)">
        <g id="_062---Coffee-Shop" data-name="062---Coffee-Shop" transform="translate(0 0.013)">
          <path id="Shape" d="M3.2,83.487A4.8,4.8,0,0,0,0,87.992v4.8a3.2,3.2,0,0,0,3.2,3.2H92.8a3.2,3.2,0,0,0,3.2-3.2v-4.8a4.8,4.8,0,0,0-3.2-4.506V25.3a4.56,4.56,0,0,0,1.773-1.109A4.71,4.71,0,0,0,96,20.792a4.8,4.8,0,0,0-4.8-4.8H73.6v-6.4a4.8,4.8,0,0,0-4.8-4.8H47.954c-.237-.274-.48-.544-.746-.8C42.72-.52,36.176-1.313,32.624,2.221a7.283,7.283,0,0,0-1.64,2.571H27.2a4.8,4.8,0,0,0-4.8,4.8v6.4H4.8a4.675,4.675,0,0,0-3.373,1.4A4.71,4.71,0,0,0,0,20.792,4.8,4.8,0,0,0,3.2,25.3Zm0,4.506a1.6,1.6,0,0,1,1.6-1.6H30.4v6.4H3.2Zm30.4,4.8v-6.4H62.4v6.4Zm24-9.6H38.4v-27.2a3.2,3.2,0,0,1,3.2-3.2H54.4a3.2,3.2,0,0,1,3.2,3.2Zm8,9.6v-6.4H91.2a1.6,1.6,0,0,1,1.6,1.6v4.8Zm24-9.6H60.8v-27.2a6.4,6.4,0,0,0-6.4-6.4H41.6a6.4,6.4,0,0,0-6.4,6.4v27.2H6.4v-57.6H22.211l-4.443,8.885c-.01.019-.011.04-.021.059s-.022.07-.037.106a1.6,1.6,0,0,0-.1.48c0,.022-.013.04-.013.062v4.8a6.373,6.373,0,0,0,11.2,4.189,6.315,6.315,0,0,0,9.6,0,6.315,6.315,0,0,0,9.6,0,6.315,6.315,0,0,0,9.6,0,6.315,6.315,0,0,0,9.6,0,6.373,6.373,0,0,0,11.2-4.181v-4.8c0-.022-.011-.04-.013-.062a1.6,1.6,0,0,0-.1-.48c-.014-.035-.022-.072-.037-.106s-.011-.04-.021-.059l-4.443-8.893H89.6Zm-18.589-56,3.2,6.4H21.789l3.2-6.4ZM65.6,39.992a3.2,3.2,0,1,1-6.4,0v-3.2h6.4Zm-9.6,0a3.2,3.2,0,0,1-6.4,0v-3.2H56Zm-9.6,0a3.2,3.2,0,1,1-6.4,0v-3.2h6.4Zm-9.6,0a3.2,3.2,0,0,1-6.4,0v-3.2h6.4Zm-9.6,0a3.2,3.2,0,0,1-6.4,0v-3.2h6.4Zm41.6-3.2h6.4v3.2a3.2,3.2,0,0,1-6.4,0Zm22.4-17.6a1.6,1.6,0,0,1,1.6,1.6,1.565,1.565,0,0,1-.49,1.141,1.544,1.544,0,0,1-1.11.459H73.6v-3.2ZM33.72,6.736a8.064,8.064,0,0,0,2.165.549,3.466,3.466,0,0,1,3.331,3.336,6.424,6.424,0,0,0,1.92,4.131,6.41,6.41,0,0,0,4.123,1.92c.286.04.536.085.774.139-2.426,1.6-6.416.7-9.376-2.269A9.014,9.014,0,0,1,33.72,6.736Zm11.226-.48a9.014,9.014,0,0,1,2.934,7.8,8.064,8.064,0,0,0-2.165-.549,3.466,3.466,0,0,1-3.331-3.342,6.424,6.424,0,0,0-1.92-4.131,6.41,6.41,0,0,0-4.123-1.92c-.3-.042-.558-.09-.8-.147a5.006,5.006,0,0,1,2.806-.8,9.738,9.738,0,0,1,6.6,3.085ZM25.6,9.592a1.6,1.6,0,0,1,1.6-1.6h3.226a12.878,12.878,0,0,0,3.968,8.8,12.858,12.858,0,0,0,8.885,3.974,7.928,7.928,0,0,0,5.7-2.21c2.574-2.584,2.838-6.758,1.056-10.571H68.8a1.6,1.6,0,0,1,1.6,1.6v14.4H25.6ZM3.69,19.651a1.544,1.544,0,0,1,1.11-.459H22.4v3.2H4.8a1.6,1.6,0,0,1-1.6-1.6,1.565,1.565,0,0,1,.49-1.141Z" transform="translate(0 -0.013)" fill="#333"/>
          <path id="Shape-2" data-name="Shape" d="M22,31H12.4A6.4,6.4,0,0,0,6,37.4V51.8A3.2,3.2,0,0,0,9.2,55h16a3.2,3.2,0,0,0,3.2-3.2V37.4A6.4,6.4,0,0,0,22,31Zm-9.6,3.2H22a3.2,3.2,0,0,1,3.2,3.2v8H9.2v-8A3.2,3.2,0,0,1,12.4,34.2ZM9.2,51.8V48.6h16v3.2Z" transform="translate(3.6 18.579)" fill="#333"/>
          <path id="Shape-3" data-name="Shape" d="M56,31H46.4A6.4,6.4,0,0,0,40,37.4V51.8A3.2,3.2,0,0,0,43.2,55h16a3.2,3.2,0,0,0,3.2-3.2V37.4A6.4,6.4,0,0,0,56,31Zm-9.6,3.2H56a3.2,3.2,0,0,1,3.2,3.2v8h-16v-8A3.2,3.2,0,0,1,46.4,34.2ZM43.2,51.8V48.6h16v3.2Z" transform="translate(24 18.579)" fill="#333"/>
          <path id="Shape-4" data-name="Shape" d="M33.6,40A1.6,1.6,0,0,0,32,41.6v4.8a1.6,1.6,0,0,0,3.2,0V41.6A1.6,1.6,0,0,0,33.6,40Z" transform="translate(19.2 23.979)" fill="#333"/>
          <path id="Shape-5" data-name="Shape" d="M35.6,10.2h9.6a1.6,1.6,0,1,0,0-3.2H35.6a1.6,1.6,0,1,0,0,3.2Z" transform="translate(20.4 4.179)" fill="#333"/>
          <path id="Shape-6" data-name="Shape" d="M40.8,11H37.6a1.6,1.6,0,0,0,0,3.2h3.2a1.6,1.6,0,0,0,0-3.2Z" transform="translate(21.6 6.579)" fill="#333"/>
        </g>
      </g>
    </g>
    <g id="Group_9432" data-name="Group 9432" transform="translate(17736.408 21607.527)">
      <path id="Path_2" data-name="Path 2" d="M27.9,4.064l.865.476c4.082,2.369,6.114,3.554,7.3,5.629s1.124,4.376,1.124,8.993v2.266c0,4.618,0,6.918-1.159,8.993-.994,1.729-2.594,2.854-5.482,4.566h0l-3.8-2.214.1-.052C30.3,30.7,32.03,29.695,32.73,28.5s.674-3.165.666-7.091V19.163c0-3.926,0-5.906-.666-7.091s-2.464-2.2-5.923-4.22l-.865-.484h0l-.951-.553c-3.372-1.98-5.1-2.975-6.4-2.975s-3.027.986-6.416,2.966h0l-.934.562h0l-.865.484C6.918,9.875,5.188,10.878,4.5,12.106s-.674,3.165-.674,7.091v2.266c0,3.926,0,5.906.674,7.091s2.421,2.162,5.88,4.185l.865.484,1.729,1,5.647,3.295,3.77,2.257L19.266,41.6h0l-.674.4-.96-.562L9.3,36.578l-.865-.484c-4.047-2.369-6.079-3.6-7.264-5.673S0,26.046,0,21.428V19.163c0-4.618,0-6.918,1.167-8.993s3.217-3.251,7.3-5.629l.865-.476h0l.951-.553h0C14.242,1.167,16.24,0,18.592,0s4.324,1.167,8.353,3.5l.951.553Z" transform="translate(-17544 -21374.527)" fill="#0092dd"/>
      <path id="Path_3" data-name="Path 3" d="M25.782,10.7l.51.294c2.7,1.565,4.056,2.352,4.92,3.822s.865,2.992.821,6.053V22.3c0,3.044,0,4.583-.821,6.053s-2.188,2.257-4.877,3.822l-.527.3-.277.164L21.7,30.405l2.162-1.263.527-.3c2.084-1.219,3.13-1.825,3.459-2.413s.337-1.781.329-4.133V20.859c0-2.361,0-3.545-.329-4.142S26.465,15.523,24.39,14.3l-.519-.3h0l-.605-.355h0c-2.023-1.193-3.044-1.781-3.7-1.781s-1.678.588-3.71,1.781h0L15.25,14h0l-.527.311c-2.093,1.211-3.13,1.816-3.459,2.4s-.337,1.781-.337,4.142v1.435c0,2.352,0,3.545.337,4.133s1.375,1.193,3.459,2.413l.527.3,4.324,2.516h0l9.754,5.69-3.8,2.214L19.573,36.1l-.96-.562-5.275-3.078-.527-.3c-2.733-1.574-4.082-2.352-4.946-3.831S7,25.338,7,22.277V20.859c0-3.053,0-4.583.865-6.053s2.188-2.248,4.877-3.822l.519-.294h0l.605-.355h0C16.512,8.8,17.861,8,19.539,8s3.027.8,5.621,2.343h0l.605.355Z" transform="translate(-17544.947 -21375.609)" fill="#333"/>
    </g>
  </g>
</svg>
