<svg id="verification-process-icon" xmlns="http://www.w3.org/2000/svg" width="104" height="104.129" viewBox="0 0 104 104.129">
  <path id="checked" d="M52,0a52,52,0,1,0,52,52A51.85,51.85,0,0,0,52,0ZM82.018,35.691h0L44.2,74.927a2.146,2.146,0,0,1-1.655.709,1.84,1.84,0,0,1-1.655-.709L22.455,55.073l-.473-.473a2.285,2.285,0,0,1,0-3.309l3.309-3.309a2.285,2.285,0,0,1,3.309,0l.236.236,13,13.945a1.142,1.142,0,0,0,1.655,0L75.164,29.309H75.4a2.285,2.285,0,0,1,3.309,0l3.309,3.309A2.015,2.015,0,0,1,82.018,35.691Z" fill="#61c2ff"/>
  <g id="surface1" transform="translate(69.004 70.129)">
    <path id="Path_2506" data-name="Path 2506" d="M6,1V3.75A2.066,2.066,0,0,0,8.063,5.813H9.438v4.619a6.2,6.2,0,0,0,2.75,5.156L15.066,17.5l-2.879,1.912a6.2,6.2,0,0,0-2.75,5.156v4.619H8.063A2.066,2.066,0,0,0,6,31.25V34H32.125V31.25a2.066,2.066,0,0,0-2.062-2.062H28.688V24.568a6.2,6.2,0,0,0-2.75-5.156L23.059,17.5l2.879-1.912a6.2,6.2,0,0,0,2.75-5.156V5.813h1.375A2.066,2.066,0,0,0,32.125,3.75V1Zm4.813,4.813h16.5v4.619a4.8,4.8,0,0,1-2.148,4L21.426,16.92l-.859.58.859.58,3.738,2.492a4.8,4.8,0,0,1,2.148,4v4.619h-16.5V24.568a4.8,4.8,0,0,1,2.148-4L16.7,18.08l.859-.58-.859-.58-3.738-2.492a4.8,4.8,0,0,1-2.148-4Zm8.25,15.662S13.8,23.33,12.488,27.813h13.17C24.366,23.242,19.063,21.475,19.063,21.475Z" fill="#0065ab"/>
    <path id="Path_2507" data-name="Path 2507" d="M14.535,13.84h9.17L19.938,16.2l-.9,7.715L18.392,16.2Z" fill="#0065ab"/>
  </g>
</svg>
