<svg id="wallet-icon" xmlns="http://www.w3.org/2000/svg" width="32" height="32" viewBox="0 0 32 32">
  <rect id="Rectangle_8476" data-name="Rectangle 8476" width="32" height="32" fill="none"/>
  <g id="wallet" transform="translate(4 6)">
    <g id="Group_9533" data-name="Group 9533" transform="translate(0 0)">
      <g id="Group_9532" data-name="Group 9532">
        <path id="Path_2668" data-name="Path 2668" d="M21.7,39H4.906a2.3,2.3,0,0,0-2.294,2.306v.028H2.3A2.3,2.3,0,0,0,0,43.622V56.361a2.313,2.313,0,0,0,2.3,2.306H19.094a2.3,2.3,0,0,0,2.294-2.306v-.028H21.7A2.3,2.3,0,0,0,24,54.044V41.306A2.309,2.309,0,0,0,21.7,39ZM19.094,57.556H2.3a1.2,1.2,0,0,1-1.189-1.194V43.622A1.188,1.188,0,0,1,2.3,42.444H19.094a1.18,1.18,0,0,1,1.183,1.178V46.8a1.367,1.367,0,0,1-.294.033H16.778a3.164,3.164,0,0,0,0,6.328h3.2c.1-.006.2-.017.294-.028l.006,3.228A1.194,1.194,0,0,1,19.094,57.556Zm3.794-3.511A1.188,1.188,0,0,1,21.7,55.222h-.311V52.733a3.036,3.036,0,0,0,.639-.583l.861-1.111ZM21.15,51.478a1.5,1.5,0,0,1-1.167.578H16.778a2.056,2.056,0,0,1,0-4.111h3.2a2.534,2.534,0,0,0,1.106-.25,2.584,2.584,0,0,0,.939-.756l.861-1.111.006,3.394Zm1.739-7.467-1.5,1.933V43.622a2.29,2.29,0,0,0-2.294-2.289H3.722v-.028a1.194,1.194,0,0,1,1.183-1.194H21.7a1.2,1.2,0,0,1,1.189,1.194Z" transform="translate(0 -39)" fill="#919191" stroke="#919191" stroke-width="0.5"/>
      </g>
    </g>
    <g id="Group_9535" data-name="Group 9535" transform="translate(15.919 10.371)">
      <g id="Group_9534" data-name="Group 9534" transform="translate(0 0)">
        <path id="Path_2669" data-name="Path 2669" d="M292.511,227h-1.49a.621.621,0,0,0,0,1.242h1.49a.621.621,0,1,0,0-1.242Z" transform="translate(-290.4 -227)" fill="#919191"/>
      </g>
    </g>
  </g>
</svg>
