<svg id="dashboard-walk-run-icon" xmlns="http://www.w3.org/2000/svg" width="32" height="32" viewBox="0 0 48 48">
  <rect id="Rectangle_9372" data-name="Rectangle 9372" width="48" height="48" fill="none"/>
  <g id="Group_10538" data-name="Group 10538" transform="translate(18193 18916)">
    <g id="road" transform="translate(-18189 -18912)">
      <g id="Group_10536" data-name="Group 10536">
        <path id="Path_3085" data-name="Path 3085" d="M31.429,17.143c-5.046,0-8.571,4.111-8.571,10,0,3.794,2.819,7.594,5.04,10H5.714a2.857,2.857,0,1,1,0-5.714h8.571a5.714,5.714,0,1,0,0-11.429H12.1c2.221-2.406,5.04-6.206,5.04-10,0-5.889-3.526-10-8.571-10S0,4.111,0,10c0,6.126,7.349,12.271,7.661,12.53a1.589,1.589,0,0,0,.214.121,1.5,1.5,0,0,0,.18.1,1.4,1.4,0,0,0,.516.1h5.714a2.857,2.857,0,1,1,0,5.714H5.714A5.714,5.714,0,1,0,5.714,40H31.429a1.4,1.4,0,0,0,.516-.1,1.382,1.382,0,0,0,.18-.1,1.588,1.588,0,0,0,.214-.121c.313-.259,7.661-6.4,7.661-12.53C40,21.254,36.474,17.143,31.429,17.143ZM10,8.571a1.429,1.429,0,0,1-2.857,0V7.143a1.429,1.429,0,1,1,2.857,0ZM32.857,25.714a1.429,1.429,0,1,1-2.857,0V24.286a1.429,1.429,0,1,1,2.857,0Z" fill="#0065ab"/>
      </g>
    </g>
    <path id="Intersection_1" data-name="Intersection 1" d="M5.714,40a5.714,5.714,0,1,1,0-11.429h8.571a2.857,2.857,0,1,0,0-5.714H8.571a1.4,1.4,0,0,1-.516-.1,1.5,1.5,0,0,1-.18-.1,1.591,1.591,0,0,1-.214-.121C7.349,22.271,0,16.126,0,10,0,4.111,3.526,0,8.571,0s8.571,4.111,8.571,10c0,3.794-2.819,7.594-5.04,10h2.183a5.714,5.714,0,0,1,0,11.429H5.714a2.857,2.857,0,0,0,0,5.714H27.9c-2.221-2.406-5.04-6.206-5.04-10,0-5.889,3.526-10,8.571-10q.127,0,.254,0V22.88A1.43,1.43,0,0,0,30,24.286v1.429a1.43,1.43,0,0,0,1.683,1.406V39.974a1.4,1.4,0,0,1-.254.026ZM7.143,7.143V8.571a1.429,1.429,0,0,0,2.857,0V7.143a1.429,1.429,0,0,0-2.857,0Z" transform="translate(-18189 -18912)" fill="#0092dd"/>
    <path id="Intersection_3" data-name="Intersection 3" d="M8.571,22.857a1.394,1.394,0,0,1-.516-.1,1.5,1.5,0,0,1-.18-.1,1.591,1.591,0,0,1-.214-.121C7.349,22.271,0,16.126,0,10,0,4.111,3.526,0,8.571,0c.087,0,.174,0,.259,0V5.738A1.43,1.43,0,0,0,7.143,7.143V8.571A1.43,1.43,0,0,0,8.831,9.977V22.857Z" transform="translate(-18189 -18912)" fill="#61c2ff"/>
  </g>
</svg>
