<svg id="dashboard-missed-icon" xmlns="http://www.w3.org/2000/svg" width="48" height="48" viewBox="0 0 48 48">
  <rect id="Rectangle_9423" data-name="Rectangle 9423" width="48" height="48" fill="none"/>
  <g id="Group_10571" data-name="Group 10571" transform="translate(-264 -169)">
    <g id="calendar_1_" data-name="calendar (1)" transform="translate(266 173)">
      <path id="Path_3005" data-name="Path 3005" d="M44,68.867V97.4a3.872,3.872,0,0,1-3.867,3.867H3.867A3.872,3.872,0,0,1,0,97.4V68.867A3.872,3.872,0,0,1,3.867,65H40.133A3.872,3.872,0,0,1,44,68.867Z" transform="translate(0 -61.563)" fill="#eef4ff"/>
      <path id="Path_3007" data-name="Path 3007" d="M44,68.867v6.359a1.29,1.29,0,0,1-1.289,1.289H1.289A1.29,1.29,0,0,1,0,75.227V68.867A3.872,3.872,0,0,1,3.867,65H40.133A3.872,3.872,0,0,1,44,68.867Z" transform="translate(0 -61.563)" fill="#dd5958"/>
      <g id="Group_10410" data-name="Group 10410" transform="translate(-158 -179.969)">
        <path id="Path_3010" data-name="Path 3010" d="M243.578,26.289v6.875a1.289,1.289,0,0,1-2.578,0V26.289a1.289,1.289,0,0,1,2.578,0Z" transform="translate(-62.289 154.969)" fill="#ffe278"/>
        <path id="Path_3011" data-name="Path 3011" d="M257.289,26.289v6.875A1.29,1.29,0,0,1,256,34.453V25A1.29,1.29,0,0,1,257.289,26.289Z" transform="translate(-76 154.969)" fill="#ffb454"/>
        <path id="Path_3055" data-name="Path 3055" d="M243.578,26.289v6.875a1.289,1.289,0,0,1-2.578,0V26.289a1.289,1.289,0,0,1,2.578,0Z" transform="translate(-76.289 154.969)" fill="#ffe278"/>
        <path id="Path_3056" data-name="Path 3056" d="M257.289,26.289v6.875A1.29,1.29,0,0,1,256,34.453V25A1.29,1.29,0,0,1,257.289,26.289Z" transform="translate(-90 154.969)" fill="#ffb454"/>
        <path id="Path_3057" data-name="Path 3057" d="M243.578,26.289v6.875a1.289,1.289,0,0,1-2.578,0V26.289a1.289,1.289,0,0,1,2.578,0Z" transform="translate(-48.289 154.969)" fill="#ffe278"/>
        <path id="Path_3058" data-name="Path 3058" d="M257.289,26.289v6.875A1.29,1.29,0,0,1,256,34.453V25A1.29,1.29,0,0,1,257.289,26.289Z" transform="translate(-62 154.969)" fill="#ffb454"/>
      </g>
    </g>
    <g id="dot" transform="translate(280 191.032)">
      <g id="Group_10334" data-name="Group 10334" transform="translate(0 -0.001)">
        <path id="Path_3026" data-name="Path 3026" d="M7.65,0A7.65,7.65,0,1,0,15.3,7.65,7.65,7.65,0,0,0,7.65,0Zm0,13.388A5.738,5.738,0,1,1,13.388,7.65,5.738,5.738,0,0,1,7.65,13.388Z" fill="#f21044"/>
      </g>
    </g>
  </g>
</svg>
