<svg id="dashboard-bmi-icon" xmlns="http://www.w3.org/2000/svg" width="64" height="64" viewBox="0 0 48 48">
  <rect id="Rectangle_9416" data-name="Rectangle 9416" width="48" height="48" fill="none"/>
  <g id="measuring-tape" transform="translate(3.17 3.644)">
    <path id="Path_2969" data-name="Path 2969" d="M247.249,16A6.308,6.308,0,0,0,241,22.249v2.5a1.25,1.25,0,0,0,2.5,0v-2.5a3.754,3.754,0,0,1,3.749-3.749,1.25,1.25,0,1,0,0-2.5Z" transform="translate(-220.92 -16)" fill="#333e73"/>
    <path id="Path_2970" data-name="Path 2970" d="M257.25,24.749v-2.5A3.754,3.754,0,0,1,261,18.5a1.25,1.25,0,0,0,0-2.5,6.226,6.226,0,0,0-5,2.538V26A1.249,1.249,0,0,0,257.25,24.749Z" transform="translate(-234.67 -16)" fill="#333e73"/>
    <path id="Path_2971" data-name="Path 2971" d="M59.746,76a10.913,10.913,0,0,0-5.558,1.382,9.376,9.376,0,0,1-8.881,0A10.913,10.913,0,0,0,39.749,76C35.758,76,31,78.385,31,89.748c0,10.54,8,21.247,13.748,21.247a4.455,4.455,0,0,0,3.383-1.616c.613-.613.913-.884,1.616-.884s1,.271,1.616.884a4.455,4.455,0,0,0,3.383,1.616c5.75,0,13.831-10.706,13.831-21.247C68.578,78.385,63.737,76,59.746,76Z" transform="translate(-28.417 -71.001)" fill="#f9b"/>
    <path id="Path_2972" data-name="Path 2972" d="M261,110.995c5.75,0,13.831-10.706,13.831-21.247C274.831,78.385,269.99,76,266,76a10.913,10.913,0,0,0-5.558,1.382A8.45,8.45,0,0,1,256,78.5v30c.7,0,1,.271,1.616.884A4.455,4.455,0,0,0,261,110.995Z" transform="translate(-234.67 -71.001)" fill="#f69"/>
    <path id="Path_2973" data-name="Path 2973" d="M21.33,256H1.25A1.238,1.238,0,0,0,0,257.25v7.5A1.238,1.238,0,0,0,1.25,266H5.083l1.25-1.25L7.582,266h5l1.25-1.25,1.25,1.25h5l1.25-1.25L22.58,266h5l1.25-1.25,1.25,1.25H40.161V256Z" transform="translate(0 -236.003)" fill="#fed843"/>
    <path id="Path_2974" data-name="Path 2974" d="M262.249,266l1.25-1.25,1.25,1.25h10.082V256H256v8.749l1.25,1.25Z" transform="translate(-240.702 -236.003)" fill="#fabe2c"/>
    <path id="Path_2975" data-name="Path 2975" d="M62.25,316A1.249,1.249,0,0,0,61,317.25V321h2.5V317.25A1.249,1.249,0,0,0,62.25,316Z" transform="translate(-55.917 -291.004)" fill="#4d578c"/>
    <path id="Path_2976" data-name="Path 2976" d="M152.25,316a1.249,1.249,0,0,0-1.25,1.25V321h2.5V317.25A1.249,1.249,0,0,0,152.25,316Z" transform="translate(-138.419 -291.004)" fill="#4d578c"/>
    <path id="Path_2977" data-name="Path 2977" d="M332.25,316a1.249,1.249,0,0,0-1.25,1.25V321h2.5V317.25A1.249,1.249,0,0,0,332.25,316Z" transform="translate(-303.421 -291.004)" fill="#333e73"/>
    <path id="Path_2978" data-name="Path 2978" d="M428.249,256H427a5,5,0,0,0,0,10h1.25a1.238,1.238,0,0,0,1.25-1.25v-7.5A1.238,1.238,0,0,0,428.249,256Z" transform="translate(-386.838 -236.003)" fill="#dfe7f4"/>
    <path id="Path_2979" data-name="Path 2979" d="M242.25,316a1.249,1.249,0,0,0-1.25,1.25V321h2.5V317.25A1.249,1.249,0,0,0,242.25,316Z" transform="translate(-220.92 -291.004)" fill="#4d578c"/>
    <path id="Path_2980" data-name="Path 2980" d="M257.25,317.25A1.249,1.249,0,0,0,256,316v5h1.25Z" transform="translate(-234.67 -291.004)" fill="#333e73"/>
  </g>
</svg>
