<svg id="dashboard-steps-icon" xmlns="http://www.w3.org/2000/svg" width="64" height="64" viewBox="0 0 48 48">
  <rect id="Rectangle_9412" data-name="Rectangle 9412" width="48" height="48" fill="none"/>
  <g id="step" transform="translate(-63.655 2)">
    <path id="Path_2954" data-name="Path 2954" d="M91.285,33.422c2.4.823,4.525,1.347,7.574,2.284C97.688,50.505,83.693,44.628,91.285,33.422ZM103.78,19.827c-.158-4.444-.94-10.273-7.175-9.359-2.922.763-5.082,3.972-6.1,9.51a26.593,26.593,0,0,0,.425,9.88c.6,1.805.4,1.694,1.042,2.037,2.5.563,4.973,1.186,7.493,1.822C102.026,31.909,104.128,22.314,103.78,19.827Zm-19.24-.341a26.61,26.61,0,0,0,.424-9.88C83.95,4.068,81.79.858,78.867.1c-6.234-.913-7.017,4.916-7.175,9.359-.348,2.486,1.754,12.082,4.314,13.89,2.519-.635,4.993-1.258,7.493-1.822C84.144,21.18,83.939,21.291,84.54,19.486Zm-7.927,5.848c1.171,14.8,15.165,8.922,7.573-2.284C81.784,23.873,79.662,24.4,76.613,25.334Z" transform="translate(0 0)" fill="#4f4f4f"/>
  </g>
</svg>
