<svg id="dashboard-moon-icon" xmlns="http://www.w3.org/2000/svg" width="40" height="40" viewBox="0 0 40 40">
  <rect id="Rectangle_9355" data-name="Rectangle 9355" width="40" height="40" fill="none"/>
  <g id="moon" transform="translate(-1.428 7)">
    <path id="Path_3040" data-name="Path 3040" d="M249.13,90.235l.747,1.366a.257.257,0,0,0,.1.1l1.366.747a.257.257,0,0,1,0,.451l-1.366.747a.257.257,0,0,0-.1.1l-.747,1.366a.257.257,0,0,1-.451,0l-.747-1.366a.257.257,0,0,0-.1-.1l-1.366-.747a.257.257,0,0,1,0-.451l1.366-.747a.257.257,0,0,0,.1-.1l.747-1.366A.257.257,0,0,1,249.13,90.235Z" transform="translate(-225.232 -85.663)" fill="#fce67a"/>
    <path id="Path_3041" data-name="Path 3041" d="M291.887,133.313l-1.366.747a.257.257,0,0,0-.1.1l-.747,1.366a.257.257,0,0,1-.451,0l-.248-.454a.274.274,0,0,0,.1-.1l.8-1.467a.283.283,0,0,1,.11-.11l1.437-.786.466.255A.257.257,0,0,1,291.887,133.313Z" transform="translate(-265.774 -126.075)" fill="#eac615"/>
    <path id="Path_3042" data-name="Path 3042" d="M12.227,407.618l.747,1.366a.257.257,0,0,0,.1.1l1.366.747a.257.257,0,0,1,0,.451l-1.366.747a.257.257,0,0,0-.1.1l-.747,1.366a.257.257,0,0,1-.451,0l-.747-1.366a.257.257,0,0,0-.1-.1l-1.366-.747a.257.257,0,0,1,0-.451l1.366-.747a.257.257,0,0,0,.1-.1l.747-1.366A.257.257,0,0,1,12.227,407.618Z" transform="translate(0 -387.41)" fill="#fce67a"/>
    <path id="Path_3043" data-name="Path 3043" d="M56.387,452.5l-1.366.747a.258.258,0,0,0-.1.1l-.747,1.366a.257.257,0,0,1-.451,0l-.175-.32.8-1.467a.289.289,0,0,1,.115-.115l1.531-.838a.276.276,0,0,0,.1-.088l.295.161A.257.257,0,0,1,56.387,452.5Z" transform="translate(-41.945 -429.63)" fill="#eac615"/>
    <path id="Path_3044" data-name="Path 3044" d="M83.344,18.261A11.918,11.918,0,1,1,70.062.018a.312.312,0,0,1,.368.444,11.921,11.921,0,0,0,10.387,17.49,12,12,0,0,0,2.218-.178A.312.312,0,0,1,83.344,18.261Z" transform="translate(-49.681 -0.003)" fill="#ffd800"/>
    <path id="Path_3045" data-name="Path 3045" d="M206.974,18.258q-.3.425-.636.823h0A13.059,13.059,0,0,1,191.719,5.949,12.982,12.982,0,0,1,193.136.2q.275-.1.557-.188a.313.313,0,0,1,.368.445,11.923,11.923,0,0,0,12.6,17.312A.312.312,0,0,1,206.974,18.258Z" transform="translate(-173.31 0)" fill="#e8c207"/>
    <path id="Path_3046" data-name="Path 3046" d="M385.011,316.607l.439.8a.257.257,0,0,0,.1.1l.8.439a.257.257,0,0,1,0,.451l-.8.439a.257.257,0,0,0-.1.1l-.439.8a.257.257,0,0,1-.451,0l-.439-.8a.257.257,0,0,0-.1-.1l-.8-.439a.257.257,0,0,1,0-.451l.8-.439a.257.257,0,0,0,.1-.1l.439-.8A.257.257,0,0,1,385.011,316.607Z" transform="translate(-355.248 -302.883)" fill="#fce67a"/>
    <path id="Path_3047" data-name="Path 3047" d="M410.644,342.708l-.8.439a.253.253,0,0,0-.1.1l-.439.8a.257.257,0,0,1-.451,0l-.218-.4a.291.291,0,0,0,.029-.043l.494-.9a.287.287,0,0,1,.115-.115l.9-.494a.294.294,0,0,0,.074-.057l.4.217A.257.257,0,0,1,410.644,342.708Z" transform="translate(-379.539 -327.189)" fill="#eac615"/>
    <path id="Path_3048" data-name="Path 3048" d="M114.434,370.556l.439.8a.257.257,0,0,0,.1.1l.8.439a.257.257,0,0,1,0,.451l-.8.439a.257.257,0,0,0-.1.1l-.439.8a.257.257,0,0,1-.451,0l-.439-.8a.257.257,0,0,0-.1-.1l-.8-.439a.257.257,0,0,1,0-.451l.8-.439a.257.257,0,0,0,.1-.1l.439-.8A.257.257,0,0,1,114.434,370.556Z" transform="translate(-98.001 -351.174)" fill="#fce67a"/>
    <path id="Path_3049" data-name="Path 3049" d="M141.3,397.363l-.8.439a.258.258,0,0,0-.1.1l-.438.8a.257.257,0,0,1-.451,0l-.154-.282a.272.272,0,0,0,.069-.082l.461-.842a.269.269,0,0,1,.107-.107l.843-.461a.267.267,0,0,0,.138-.2l.331.181A.257.257,0,0,1,141.3,397.363Z" transform="translate(-123.527 -376.187)" fill="#eac615"/>
  </g>
</svg>
